<svg width="52" height="45" viewBox="0 0 52 45" fill="none" xmlns="http://www.w3.org/2000/svg">
<path d="M26 0C40.3594 0 52 11.6416 52 26.001C52 26.1524 51.9986 26.3036 51.9959 26.4545C51.9775 27.4833 51.1104 28.2705 50.0815 28.2705C48.9063 28.2705 47.9959 27.2529 47.9999 26.0777C48 26.0521 48 26.0266 48 26.001C48 13.8507 38.1503 4.00098 26 4.00098C13.8497 4.00098 4 13.8507 4 26.001C4 26.0266 4.00004 26.0521 4.00013 26.0777C4.00412 27.2529 3.0937 28.2705 1.91853 28.2705C0.889563 28.2705 0.0224928 27.4833 0.00407472 26.4545C0.0013742 26.3036 2.78382e-06 26.1524 0 26.001C0 11.6416 11.6406 0 26 0Z" fill="#071220"/>
<path d="M26 18.001V39.4947" stroke="#071220" stroke-width="4" stroke-linecap="round" stroke-linejoin="round"/>
<circle cx="26" cy="38.001" r="7" fill="#071220"/>
</svg>
