<svg width="52" height="52" viewBox="0 0 52 52" fill="none" xmlns="http://www.w3.org/2000/svg">
<path d="M26 0C40.3594 0 52 11.6416 52 26.001C51.9997 40.3602 40.3592 52.001 26 52.001C11.6408 52.001 0.0002639 40.3602 0 26.001C0 11.6416 11.6406 0 26 0ZM26 4.00098C13.8497 4.00098 4 13.8507 4 26.001C4.00026 38.151 13.8499 48.001 26 48.001C38.1501 48.001 47.9997 38.151 48 26.001C48 13.8507 38.1503 4.00098 26 4.00098Z" fill="#071220"/>
<circle cx="45" cy="40.001" r="6" fill="#071220"/>
<circle cx="7" cy="12.001" r="6" fill="#071220"/>
</svg>
