<svg width="62" height="62" viewBox="0 0 62 62" fill="none" xmlns="http://www.w3.org/2000/svg">
<path d="M48.3311 9.02995C43.4426 6.59769 37.4607 5.16699 31 5.16699C24.5393 5.16699 18.5574 6.59769 13.6688 9.02998C11.2715 10.2227 10.0729 10.8191 8.91147 12.6943C7.75 14.5694 7.75 16.3851 7.75 20.0164V29.0294C7.75 43.7116 19.4844 51.8746 26.2803 55.3709C28.1756 56.3461 29.1232 56.8336 31 56.8336C32.8768 56.8336 33.8244 56.3461 35.7195 55.3709C42.5155 51.8746 54.25 43.7116 54.25 29.0294V20.0164C54.25 16.3851 54.25 14.5694 53.0885 12.6943C51.9271 10.8191 50.7284 10.2227 48.3311 9.02995Z" stroke="#071220" stroke-width="4" stroke-linecap="round" stroke-linejoin="round"/>
<path d="M28.4167 24.5421C28.4167 25.2272 28.689 25.8843 29.1733 26.3687C29.6577 26.8533 30.3149 27.1254 31 27.1254C31.6851 27.1254 32.3423 26.8533 32.8267 26.3687C33.3111 25.8843 33.5834 25.2272 33.5834 24.5421C33.5834 23.8569 33.3111 23.1999 32.8267 22.7154C32.3423 22.2309 31.6851 21.9587 31 21.9587C30.3149 21.9587 29.6577 22.2309 29.1733 22.7154C28.689 23.1999 28.4167 23.8569 28.4167 24.5421Z" fill="#071220" stroke="#071220" stroke-width="4" stroke-linecap="round" stroke-linejoin="round"/>
<path d="M32.9375 36.1669H29.0625L31 27.1252L32.9375 36.1669Z" fill="#071220" stroke="#071220" stroke-width="4" stroke-linecap="round" stroke-linejoin="round"/>
</svg>
