<svg width="62" height="62" viewBox="0 0 62 62" fill="none" xmlns="http://www.w3.org/2000/svg">
<path d="M16 45.2085V30.0001M26.209 45.2085V21.9585M36.0013 45.2085V34.0001" stroke="#071220" stroke-width="4" stroke-linecap="round"/>
<path d="M51 19C51 22.866 47.8661 26 44 26C40.1339 26 37 22.866 37 19C37 15.134 40.1339 12 44 12C47.8661 12 51 15.134 51 19Z" fill="#071220"/>
<path d="M55.5301 28.4166C55.5301 28.4166 55.5417 29.2936 55.5417 30.9999C55.5417 42.5691 55.5417 48.3535 51.9478 51.9477C48.3536 55.5416 42.569 55.5416 31 55.5416C19.431 55.5416 13.6465 55.5416 10.0524 51.9477C6.45837 48.3535 6.45837 42.5691 6.45837 30.9999C6.45837 19.431 6.45837 13.6464 10.0524 10.0524C13.6465 6.45833 19.431 6.45833 31 6.45833L33.5834 6.45825" stroke="#071220" stroke-width="4" stroke-linecap="round" stroke-linejoin="round"/>
</svg>
