<svg width="80" height="80" viewBox="0 0 80 80" fill="none" xmlns="http://www.w3.org/2000/svg">
<path d="M72 0C76.4183 1.03081e-06 80 3.58172 80 8V72C80 76.4183 76.4183 80 72 80H8C3.58172 80 6.44277e-08 76.4183 0 72V8C1.03084e-06 3.58172 3.58172 6.44256e-08 8 0H72ZM40 13.667C35.1855 13.667 31.3726 13.6631 28.3945 14.0635C25.3591 14.4716 22.892 15.3326 20.9453 17.2793C18.9988 19.226 18.1376 21.6931 17.7295 24.7285C17.3291 27.7066 17.333 31.5195 17.333 36.334V48.0732C17.333 52.216 17.33 55.4974 17.6328 58.0908C17.9407 60.7271 18.588 62.9087 20.0654 64.7412V64.7422C20.6172 65.4265 21.2406 66.0499 21.9248 66.6016C23.7573 68.0791 25.9397 68.7263 28.5762 69.0342C31.1696 69.337 34.4508 69.334 38.5938 69.334C40.277 69.334 41.5955 69.3606 42.8281 68.9258C43.0697 68.8406 43.3055 68.742 43.5342 68.6328L43.5352 68.6318C44.7142 68.0677 45.6282 67.117 46.8184 65.9268L59.0537 53.6914C60.4317 52.3134 61.54 51.2549 62.1211 49.8525C62.7018 48.4503 62.666 46.9182 62.666 44.9697V36.334C62.666 31.5195 62.6709 27.7066 62.2705 24.7285C61.8624 21.6929 61.0005 19.2261 59.0537 17.2793C57.107 15.3325 54.6401 14.4716 51.6045 14.0635C48.6264 13.6631 44.8142 13.667 40 13.667ZM40 17.667C44.9271 17.667 48.4217 17.6712 51.0713 18.0273C53.6634 18.3758 55.146 19.0278 56.2256 20.1074C57.3054 21.1872 57.9572 22.6696 58.3057 25.2617C58.6619 27.9113 58.666 31.4064 58.666 36.334V44.9697C58.666 46.0594 58.657 46.7609 58.626 47.25H58.083C54.4864 47.25 51.5871 47.2459 49.3125 47.5518C46.9805 47.8654 45.0069 48.5381 43.4385 50.1064C41.8704 51.6749 41.1983 53.6486 40.8848 55.9805C40.579 58.255 40.583 61.1537 40.583 64.75V65.3018C40.1584 65.3259 39.5485 65.334 38.5938 65.334C34.3542 65.334 31.3476 65.33 29.04 65.0605C26.7757 64.7961 25.4419 64.2987 24.4355 63.4873C23.9731 63.1144 23.5515 62.6928 23.1787 62.2305H23.1777C22.3668 61.2242 21.8698 59.8905 21.6055 57.627C21.336 55.3194 21.333 52.3127 21.333 48.0732V36.334C21.333 31.4065 21.3372 27.9113 21.6934 25.2617C22.0418 22.6698 22.6939 21.1871 23.7734 20.1074C24.8531 19.0277 26.3358 18.3759 28.9277 18.0273C31.5773 17.6711 35.0725 17.667 40 17.667ZM44.5869 62.5C44.5976 59.9555 44.6435 58.0386 44.8486 56.5127C45.1025 54.6246 45.5663 53.636 46.2676 52.9346C46.969 52.2333 47.9575 51.7705 49.8457 51.5166C51.3716 51.3114 53.2883 51.2646 55.833 51.2539L44.5869 62.5ZM29.667 36.917C28.5624 36.917 27.667 37.8124 27.667 38.917C27.6672 40.0214 28.5625 40.917 29.667 40.917H40C41.1043 40.9168 41.9998 40.0213 42 38.917C42 37.8125 41.1044 36.9172 40 36.917H29.667ZM29.667 26.583C28.5625 26.583 27.6672 27.4786 27.667 28.583C27.667 29.6876 28.5624 30.583 29.667 30.583H50.334C51.4383 30.5827 52.334 29.6874 52.334 28.583C52.3338 27.4788 51.4381 26.5834 50.334 26.583H29.667Z" fill="#F8F9F9"/>
</svg>
