<svg width="80" height="80" viewBox="0 0 80 80" fill="none" xmlns="http://www.w3.org/2000/svg">
<path d="M72 0C76.4183 1.03081e-06 80 3.58172 80 8V72C80 76.4183 76.4183 80 72 80H8C3.58172 80 6.44277e-08 76.4183 0 72V8C1.03084e-06 3.58172 3.58172 6.44256e-08 8 0H72ZM22.8945 45C19.5808 45 16.8945 47.6863 16.8945 51V63C16.8945 66.3137 19.5808 69 22.8945 69H25.8945C29.2082 69 31.8945 66.3137 31.8945 63V51C31.8945 47.6863 29.2082 45 25.8945 45H22.8945ZM41 37C37.6863 37 35.0001 39.6863 35 43V63C35 66.3137 37.6863 69 41 69H44C47.3137 69 50 66.3137 50 63V43C49.9999 39.6863 47.3137 37 44 37H41ZM58.8945 17C55.5808 17 52.8945 19.6863 52.8945 23V63C52.8945 66.3137 55.5808 69 58.8945 69H61.8945C65.2082 69 67.8945 66.3137 67.8945 63V23C67.8945 19.6863 65.2082 17 61.8945 17H58.8945ZM25.8945 49C26.9991 49 27.8945 49.8954 27.8945 51V63C27.8945 64.1046 26.9991 65 25.8945 65H22.8945C21.79 65 20.8945 64.1046 20.8945 63V51C20.8945 49.8954 21.79 49 22.8945 49H25.8945ZM44 41C45.1045 41 45.9999 41.8955 46 43V63C46 64.1046 45.1046 65 44 65H41C39.8954 65 39 64.1046 39 63V43C39.0001 41.8955 39.8955 41 41 41H44ZM61.8945 21C62.9991 21 63.8945 21.8954 63.8945 23V63C63.8945 64.1046 62.9991 65 61.8945 65H58.8945C57.79 65 56.8945 64.1046 56.8945 63V23C56.8945 21.8954 57.79 21 58.8945 21H61.8945ZM38.291 19.8613C34.41 16.355 28.4865 16.3559 24.6055 19.8623L24.2246 20.2236C20.7195 23.7288 20.2946 29.1472 22.9482 33.1172L17.9961 38.0693C17.215 38.8504 17.215 40.1174 17.9961 40.8984C18.7771 41.6792 20.0432 41.6792 20.8242 40.8984L25.7754 35.9463C29.7457 38.6028 35.1666 38.1781 38.6729 34.6719L39.0352 34.291C42.6581 30.2807 42.5372 24.0896 38.6729 20.2246L38.291 19.8613ZM27.0527 23.0527C29.4803 20.6255 33.4162 20.6254 35.8438 23.0527C38.271 25.4803 38.271 29.4162 35.8438 31.8438C33.4162 34.271 29.4803 34.271 27.0527 31.8438C24.6254 29.4162 24.6254 25.4803 27.0527 23.0527Z" fill="#F8F9F9"/>
</svg>
