<svg xmlns="http://www.w3.org/2000/svg" fill="none">

    <symbol id="about" viewBox="0 0 24 24"> <path d="M10 18V11" stroke="currentColor" stroke-width="2" stroke-linecap="round" stroke-linejoin="round"/> <path d="M11.1201 2.198C11.3945 2.06471 11.6957 1.99595 12.0008 1.99699C12.3059 1.99803 12.6066 2.06884 12.8801 2.204L20.7461 6.051C21.2221 6.284 21.0561 7 20.5261 7H3.4741C2.9441 7 2.7791 6.284 3.2541 6.051L11.1201 2.198Z" stroke="currentColor" stroke-width="2" stroke-linecap="round" stroke-linejoin="round"/> <path d="M14 18V11" stroke="currentColor" stroke-width="2" stroke-linecap="round" stroke-linejoin="round"/> <path d="M18 18V11" stroke="currentColor" stroke-width="2" stroke-linecap="round" stroke-linejoin="round"/> <path d="M3 22H21" stroke="currentColor" stroke-width="2" stroke-linecap="round" stroke-linejoin="round"/> <path d="M6 18V11" stroke="currentColor" stroke-width="2" stroke-linecap="round" stroke-linejoin="round"/>
    </symbol>

    <symbol id="analytics" viewBox="0 0 24 24">
        <path d="M3 3V19C3 19.5304 3.21071 20.0391 3.58579 20.4142C3.96086 20.7893 4.46957 21 5 21H21" stroke="currentColor" stroke-width="2" stroke-linecap="round" stroke-linejoin="round"/>
        <path d="M7 16C7.5 14 8.5 9 11 9C13 9 13 12 15 12C17.5 12 19.5 7 20 5" stroke="currentColor" stroke-width="2" stroke-linecap="round" stroke-linejoin="round"/>
    </symbol>


    <symbol id="games" viewBox="0 0 24 24">
            <path d="M6 11H10" stroke="currentColor" stroke-width="2" stroke-linecap="round" stroke-linejoin="round"/>
            <path d="M8 9V13" stroke="currentColor" stroke-width="2" stroke-linecap="round" stroke-linejoin="round"/>
            <path d="M15 12H15.01" stroke="currentColor" stroke-width="2" stroke-linecap="round" stroke-linejoin="round"/>
            <path d="M18 10H18.01" stroke="currentColor" stroke-width="2" stroke-linecap="round" stroke-linejoin="round"/>
            <path d="M17.32 5H6.68C5.69028 5.00023 4.73579 5.36738 4.00103 6.03046C3.26628 6.69355 2.80345 7.60549 2.702 8.59C2.696 8.642 2.692 8.691 2.685 8.742C2.604 9.416 2 14.456 2 16C2 16.7956 2.31607 17.5587 2.87868 18.1213C3.44129 18.6839 4.20435 19 5 19C6 19 6.5 18.5 7 18L8.414 16.586C8.78899 16.2109 9.29761 16.0001 9.828 16H14.172C14.7024 16.0001 15.211 16.2109 15.586 16.586L17 18C17.5 18.5 18 19 19 19C19.7956 19 20.5587 18.6839 21.1213 18.1213C21.6839 17.5587 22 16.7956 22 16C22 14.455 21.396 9.416 21.315 8.742C21.308 8.692 21.304 8.642 21.298 8.591C21.1968 7.60631 20.7341 6.69413 19.9993 6.03083C19.2645 5.36754 18.3099 5.00026 17.32 5Z" stroke="currentColor" stroke-width="2" stroke-linecap="round" stroke-linejoin="round"/>
    </symbol>

    <symbol id="payment" viewBox="0 0 24 24">
            <path d="M20 5H4C2.89543 5 2 5.89543 2 7V17C2 18.1046 2.89543 19 4 19H20C21.1046 19 22 18.1046 22 17V7C22 5.89543 21.1046 5 20 5Z" stroke="currentColor" stroke-width="2" stroke-linecap="round" stroke-linejoin="round"/>
            <path d="M2 10H22" stroke="currentColor" stroke-width="2" stroke-linecap="round" stroke-linejoin="round"/>
    </symbol>


</svg>