<svg width="443" height="426" viewBox="0 0 443 426" fill="none" xmlns="http://www.w3.org/2000/svg">
<mask id="mask0_2_4931" style="mask-type:alpha" maskUnits="userSpaceOnUse" x="0" y="0" width="443" height="426">
<path d="M0 0H443V426H0V0Z" fill="url(#paint0_linear_2_4931)"/>
</mask>
<g mask="url(#mask0_2_4931)">
<circle cx="222" cy="211" r="202.5" stroke="#D9D9D9" stroke-opacity="0.5"/>
<circle cx="221.997" cy="211" r="64.0909" stroke="#D9D9D9" stroke-opacity="0.5"/>
<circle cx="222.001" cy="211" r="89.0045" stroke="#D9D9D9" stroke-opacity="0.5"/>
<circle cx="222.459" cy="211.461" r="115.302" stroke="#D9D9D9" stroke-opacity="0.5"/>
<circle cx="221.998" cy="211" r="140.677" stroke="#D9D9D9" stroke-opacity="0.5"/>
<path d="M222 46.3318C312.942 46.3318 386.668 120.262 386.668 211.462C386.668 302.661 312.942 376.591 222 376.591C131.058 376.59 57.3322 302.661 57.332 211.462C57.332 120.262 131.058 46.3319 222 46.3318Z" stroke="#D9D9D9" stroke-opacity="0.5"/>
<g filter="url(#filter0_i_2_4931)">
<path d="M183.033 65.8851C214.991 57.3045 248.887 59.5134 279.461 72.1683C310.035 84.8232 335.577 107.216 352.121 135.872C354.883 140.655 353.244 146.771 348.461 149.533C343.678 152.294 337.562 150.655 334.801 145.872C320.458 121.031 298.316 101.618 271.812 90.6478C245.307 79.6775 215.923 77.7631 188.22 85.2015C160.516 92.64 136.042 109.016 118.598 131.786C101.153 154.557 91.7127 182.449 91.7423 211.134C91.748 216.657 87.2757 221.139 81.753 221.145C76.2302 221.151 71.748 216.677 71.7423 211.155C71.7082 178.065 82.5978 145.89 102.721 119.623C122.844 93.3562 151.076 74.4658 183.033 65.8851Z" fill="#F9F9F9"/>
<path d="M183.163 66.3684C215.014 57.8164 248.797 60.0175 279.27 72.6301C309.742 85.2429 335.199 107.562 351.688 136.122C354.312 140.666 352.754 146.476 348.211 149.1C343.667 151.723 337.857 150.166 335.233 145.622C320.836 120.685 298.609 101.198 272.003 90.1858C245.397 79.1734 215.9 77.252 188.09 84.719C160.28 92.1861 135.713 108.625 118.201 131.483C100.69 154.341 91.2125 182.34 91.2422 211.135C91.2474 216.381 86.9991 220.639 81.7529 220.645C76.5064 220.65 72.2478 216.401 72.2422 211.155C72.2083 178.176 83.0621 146.107 103.118 119.927C123.174 93.7475 151.312 74.9205 183.163 66.3684Z" stroke="#D9D9D9" stroke-opacity="0.5" stroke-linecap="round"/>
<path d="M97.5781 211C97.5782 189.478 103.161 168.324 113.781 149.605C124.401 130.886 139.696 115.242 158.17 104.201C176.644 93.1603 197.666 87.1008 219.183 86.6141C240.699 86.1274 261.974 91.2295 280.929 101.424C285.793 104.04 287.615 110.104 284.999 114.968C282.383 119.832 276.319 121.654 271.455 119.038C255.548 110.483 237.692 106.2 219.635 106.608C201.577 107.017 183.934 112.103 168.43 121.369C152.925 130.635 140.09 143.764 131.177 159.474C122.264 175.184 117.578 192.938 117.578 211C117.578 216.523 113.101 221 107.578 221C102.055 221 97.5781 216.523 97.5781 211Z" fill="#F9F9F9"/>
<path d="M219.194 87.1135C240.624 86.6289 261.813 91.7115 280.691 101.865C285.312 104.35 287.044 110.11 284.559 114.731C282.074 119.351 276.313 121.083 271.692 118.598C255.709 110.002 237.767 105.698 219.623 106.109C201.479 106.519 183.751 111.629 168.173 120.94C152.594 130.25 139.698 143.443 130.742 159.228C121.787 175.013 117.078 192.852 117.078 211C117.078 216.247 112.825 220.5 107.578 220.5C102.332 220.5 98.0783 216.247 98.0781 211L98.082 209.995C98.253 188.907 103.804 168.204 114.216 149.852C124.793 131.208 140.027 115.627 158.427 104.63C176.827 93.6339 197.765 87.5983 219.194 87.1135Z" stroke="#D9D9D9" stroke-opacity="0.5" stroke-linecap="round"/>
<path d="M123.418 211C123.418 198.054 125.968 185.235 130.922 173.275C135.876 161.314 143.138 150.446 152.292 141.292C161.446 132.138 172.314 124.876 184.274 119.922C196.235 114.968 209.054 112.418 222 112.418C227.523 112.418 232 116.895 232 122.418C232 127.941 227.523 132.418 222 132.418C211.68 132.418 201.462 134.451 191.928 138.4C182.394 142.349 173.731 148.137 166.434 155.434C159.137 162.731 153.349 171.394 149.399 180.928C145.45 190.462 143.418 200.681 143.418 211C143.418 216.523 138.941 221 133.418 221C127.895 221 123.418 216.523 123.418 211Z" fill="#F9F9F9"/>
<path d="M222 112.918C227.247 112.918 231.5 117.172 231.5 122.418C231.5 127.501 227.509 131.651 222.489 131.906L222 131.918C211.615 131.918 201.331 133.964 191.736 137.938C182.142 141.912 173.423 147.737 166.08 155.08C158.737 162.424 152.912 171.142 148.938 180.737C144.963 190.331 142.918 200.615 142.918 211L142.905 211.49C142.651 216.509 138.5 220.5 133.418 220.5C128.171 220.5 123.918 216.247 123.918 211C123.918 198.12 126.455 185.366 131.384 173.466C136.313 161.566 143.538 150.753 152.646 141.646C161.753 132.538 172.566 125.313 184.466 120.384C196.366 115.455 209.12 112.918 222 112.918Z" stroke="#D9D9D9" stroke-opacity="0.5" stroke-linecap="round"/>
<path d="M149.25 211C149.25 197.565 152.971 184.392 160 172.942C167.029 161.492 177.091 152.212 189.071 146.132C193.996 143.632 200.015 145.598 202.515 150.522C205.014 155.447 203.048 161.466 198.123 163.966C189.436 168.375 182.14 175.103 177.044 183.405C171.948 191.707 169.25 201.258 169.25 211C169.25 216.523 164.773 221 159.25 221C153.727 221 149.25 216.523 149.25 211Z" fill="#F9F9F9"/>
<path d="M189.298 146.578C193.976 144.203 199.694 146.071 202.068 150.749C204.443 155.427 202.575 161.146 197.896 163.52C189.128 167.971 181.763 174.763 176.618 183.143C171.473 191.524 168.75 201.166 168.75 211C168.75 216.246 164.497 220.5 159.25 220.5C154.003 220.5 149.75 216.246 149.75 211L149.761 209.75C149.984 196.841 153.663 184.22 160.426 173.204C167.406 161.833 177.4 152.617 189.298 146.578Z" stroke="#D9D9D9" stroke-opacity="0.5" stroke-linecap="round"/>
<path d="M197.384 36.6381C239.402 30.7067 282.149 40.1484 317.761 63.226C353.372 86.3037 379.453 121.465 391.203 162.241C392.732 167.548 389.669 173.089 384.362 174.619C379.056 176.148 373.514 173.086 371.984 167.779C361.569 131.634 338.451 100.466 306.885 80.0092C275.318 59.5527 237.426 51.1842 200.18 56.4419C162.933 61.6997 128.838 80.2302 104.167 108.625C79.4963 137.021 65.9097 173.37 65.9062 210.986C65.9056 216.509 61.428 220.985 55.9053 220.985C50.3825 220.984 45.9058 216.507 45.9063 210.984C45.9102 168.549 61.2377 127.542 89.0693 95.5083C116.901 63.4747 155.365 42.5696 197.384 36.6381Z" fill="#F9F9F9"/>
<path d="M197.454 37.1337C239.353 31.2192 281.979 40.6333 317.489 63.6454C352.999 86.6575 379.006 121.719 390.723 162.379C392.175 167.42 389.265 172.686 384.224 174.139C379.182 175.591 373.918 172.682 372.465 167.641C362.016 131.38 338.824 100.112 307.156 79.5897C275.489 59.0678 237.475 50.6726 200.109 55.9471C162.744 61.2219 128.54 79.8117 103.79 108.298C79.0404 136.784 65.4097 173.25 65.4062 210.986C65.4054 216.233 61.1517 220.486 55.9053 220.485C50.6588 220.485 46.406 216.231 46.4062 210.984C46.4101 168.67 61.6937 127.778 89.4463 95.8358C117.199 63.8932 155.555 43.0483 197.454 37.1337Z" stroke="#D9D9D9" stroke-opacity="0.5" stroke-linecap="round"/>
</g>
<circle cx="193.858" cy="155.175" r="6.92045" fill="#D4F770"/>
<circle cx="221.538" cy="122.418" r="6.92045" fill="#D4F770"/>
<circle cx="275.518" cy="109.961" r="6.92045" fill="#D4F770"/>
<circle cx="343.338" cy="140.873" r="6.92045" fill="#D4F770"/>
<circle cx="381.17" cy="164.402" r="6.92045" fill="#D4F770"/>
</g>
<defs>
<filter id="filter0_i_2_4931" x="45.9062" y="34.9091" width="345.69" height="187.236" filterUnits="userSpaceOnUse" color-interpolation-filters="sRGB">
<feFlood flood-opacity="0" result="BackgroundImageFix"/>
<feBlend mode="normal" in="SourceGraphic" in2="BackgroundImageFix" result="shape"/>
<feColorMatrix in="SourceAlpha" type="matrix" values="0 0 0 0 0 0 0 0 0 0 0 0 0 0 0 0 0 0 127 0" result="hardAlpha"/>
<feOffset dy="1"/>
<feGaussianBlur stdDeviation="2"/>
<feComposite in2="hardAlpha" operator="arithmetic" k2="-1" k3="1"/>
<feColorMatrix type="matrix" values="0 0 0 0 0 0 0 0 0 0 0 0 0 0 0 0 0 0 0.1 0"/>
<feBlend mode="normal" in2="shape" result="effect1_innerShadow_2_4931"/>
</filter>
<linearGradient id="paint0_linear_2_4931" x1="221.5" y1="0" x2="221.5" y2="385" gradientUnits="userSpaceOnUse">
<stop offset="0.35" stop-color="#D9D9D9"/>
<stop offset="1" stop-color="#737373" stop-opacity="0"/>
</linearGradient>
</defs>
</svg>
