<svg width="443" height="426" viewBox="0 0 443 426" fill="none" xmlns="http://www.w3.org/2000/svg">
<mask id="mask0_2_4966" style="mask-type:alpha" maskUnits="userSpaceOnUse" x="0" y="0" width="443" height="426">
<path d="M0 0H443V426H0V0Z" fill="url(#paint0_linear_2_4966)"/>
</mask>
<g mask="url(#mask0_2_4966)">
<circle cx="221.996" cy="222.5" r="154.239" stroke="#D9D9D9" stroke-opacity="0.5"/>
<path d="M222.505 41.9659C322.49 41.9661 403.544 123.021 403.544 223.006C403.544 322.991 322.49 404.045 222.505 404.045C122.519 404.045 41.465 322.991 41.4648 223.006C41.4648 123.02 122.519 41.9659 222.505 41.9659Z" stroke="#D9D9D9" stroke-opacity="0.5"/>
<mask id="path-4-inside-1_2_4966" fill="white">
<path d="M221 173C249.167 173 272 195.833 272 224C272 252.167 249.167 275 221 275C192.833 275 170 252.167 170 224C170 195.833 192.833 173 221 173ZM221 193C203.879 193 190 206.879 190 224C190 241.121 203.879 255 221 255C238.121 255 252 241.121 252 224C252 206.879 238.121 193 221 193Z"/>
</mask>
<g filter="url(#filter0_i_2_4966)">
<path d="M221 173C249.167 173 272 195.833 272 224C272 252.167 249.167 275 221 275C192.833 275 170 252.167 170 224C170 195.833 192.833 173 221 173ZM221 193C203.879 193 190 206.879 190 224C190 241.121 203.879 255 221 255C238.121 255 252 241.121 252 224C252 206.879 238.121 193 221 193Z" fill="#F9F9F9"/>
</g>
<path d="M221 173V174C248.614 174 271 196.386 271 224H272H273C273 195.281 249.719 172 221 172V173ZM272 224H271C271 251.614 248.614 274 221 274V275V276C249.719 276 273 252.719 273 224H272ZM221 275V274C193.386 274 171 251.614 171 224H170H169C169 252.719 192.281 276 221 276V275ZM170 224H171C171 196.386 193.386 174 221 174V173V172C192.281 172 169 195.281 169 224H170ZM221 193V192C203.327 192 189 206.327 189 224H190H191C191 207.431 204.431 194 221 194V193ZM190 224H189C189 241.673 203.327 256 221 256V255V254C204.431 254 191 240.569 191 224H190ZM221 255V256C238.673 256 253 241.673 253 224H252H251C251 240.569 237.569 254 221 254V255ZM252 224H253C253 206.327 238.673 192 221 192V193V194C237.569 194 251 207.431 251 224H252Z" fill="#D9D9D9" fill-opacity="0.5" mask="url(#path-4-inside-1_2_4966)"/>
<mask id="path-6-inside-2_2_4966" fill="white">
<path d="M222 0C257.899 0 287 29.1015 287 65V121.149C320.681 142.749 343 180.518 343 223.5C343 290.603 288.603 345 221.5 345C154.397 345 100 290.603 100 223.5C100 180.094 122.762 142.006 157 120.517V65C157 29.1015 186.101 0 222 0ZM221 121C164.667 121 119 166.667 119 223C119 279.333 164.667 325 221 325C277.333 325 323 279.333 323 223C323 166.667 277.333 121 221 121ZM222 20C197.147 20 177 40.1472 177 65V110.407C190.781 104.98 205.792 102 221.5 102C237.589 102 252.947 105.128 267 110.808V65C267 40.1472 246.853 20 222 20Z"/>
</mask>
<g filter="url(#filter1_i_2_4966)">
<path d="M222 0C257.899 0 287 29.1015 287 65V121.149C320.681 142.749 343 180.518 343 223.5C343 290.603 288.603 345 221.5 345C154.397 345 100 290.603 100 223.5C100 180.094 122.762 142.006 157 120.517V65C157 29.1015 186.101 0 222 0ZM221 121C164.667 121 119 166.667 119 223C119 279.333 164.667 325 221 325C277.333 325 323 279.333 323 223C323 166.667 277.333 121 221 121ZM222 20C197.147 20 177 40.1472 177 65V110.407C190.781 104.98 205.792 102 221.5 102C237.589 102 252.947 105.128 267 110.808V65C267 40.1472 246.853 20 222 20Z" fill="#F9F9F9"/>
</g>
<path d="M287 65H288H287ZM287 121.149H286V121.696L286.46 121.991L287 121.149ZM157 120.517L157.532 121.364L158 121.07V120.517H157ZM157 65H156H157ZM177 65H176H177ZM177 110.407H176V111.876L177.366 111.338L177 110.407ZM267 110.808L266.625 111.735L268 112.29V110.808H267ZM267 65H268H267ZM222 0V1C257.346 1 286 29.6538 286 65H287H288C288 28.5492 258.451 -1 222 -1V0ZM287 65H286V121.149H287H288V65H287ZM287 121.149L286.46 121.991C319.866 143.414 342 180.873 342 223.5H343H344C344 180.163 321.495 142.083 287.54 120.308L287 121.149ZM343 223.5H342C342 290.05 288.05 344 221.5 344V345V346C289.155 346 344 291.155 344 223.5H343ZM221.5 345V344C154.95 344 101 290.05 101 223.5H100H99C99 291.155 153.845 346 221.5 346V345ZM100 223.5H101C101 180.453 123.573 142.677 157.532 121.364L157 120.517L156.468 119.67C121.951 141.334 99 179.736 99 223.5H100ZM157 120.517H158V65H157H156V120.517H157ZM157 65H158C158 29.6538 186.654 1 222 1V0V-1C185.549 -1 156 28.5492 156 65H157ZM221 121V120C164.115 120 118 166.115 118 223H119H120C120 167.219 165.219 122 221 122V121ZM119 223H118C118 279.885 164.115 326 221 326V325V324C165.219 324 120 278.781 120 223H119ZM221 325V326C277.885 326 324 279.885 324 223H323H322C322 278.781 276.781 324 221 324V325ZM323 223H324C324 166.115 277.885 120 221 120V121V122C276.781 122 322 167.219 322 223H323ZM222 20V19C196.595 19 176 39.5949 176 65H177H178C178 40.6995 197.699 21 222 21V20ZM177 65H176V110.407H177H178V65H177ZM177 110.407L177.366 111.338C191.032 105.956 205.92 103 221.5 103V102V101C205.665 101 190.529 104.005 176.634 109.477L177 110.407ZM221.5 102V103C237.458 103 252.689 106.102 266.625 111.735L267 110.808L267.375 109.88C253.204 104.154 237.719 101 221.5 101V102ZM267 110.808H268V65H267H266V110.808H267ZM267 65H268C268 39.5949 247.405 19 222 19V20V21C246.301 21 266 40.6995 266 65H267Z" fill="#D9D9D9" fill-opacity="0.5" mask="url(#path-6-inside-2_2_4966)"/>
<g filter="url(#filter2_d_2_4966)">
<circle cx="221" cy="224" r="31" fill="#D4F770"/>
</g>
</g>
<defs>
<filter id="filter0_i_2_4966" x="170" y="173" width="102" height="103" filterUnits="userSpaceOnUse" color-interpolation-filters="sRGB">
<feFlood flood-opacity="0" result="BackgroundImageFix"/>
<feBlend mode="normal" in="SourceGraphic" in2="BackgroundImageFix" result="shape"/>
<feColorMatrix in="SourceAlpha" type="matrix" values="0 0 0 0 0 0 0 0 0 0 0 0 0 0 0 0 0 0 127 0" result="hardAlpha"/>
<feOffset dy="1"/>
<feGaussianBlur stdDeviation="2"/>
<feComposite in2="hardAlpha" operator="arithmetic" k2="-1" k3="1"/>
<feColorMatrix type="matrix" values="0 0 0 0 0 0 0 0 0 0 0 0 0 0 0 0 0 0 0.1 0"/>
<feBlend mode="normal" in2="shape" result="effect1_innerShadow_2_4966"/>
</filter>
<filter id="filter1_i_2_4966" x="100" y="0" width="243" height="346" filterUnits="userSpaceOnUse" color-interpolation-filters="sRGB">
<feFlood flood-opacity="0" result="BackgroundImageFix"/>
<feBlend mode="normal" in="SourceGraphic" in2="BackgroundImageFix" result="shape"/>
<feColorMatrix in="SourceAlpha" type="matrix" values="0 0 0 0 0 0 0 0 0 0 0 0 0 0 0 0 0 0 127 0" result="hardAlpha"/>
<feOffset dy="1"/>
<feGaussianBlur stdDeviation="2"/>
<feComposite in2="hardAlpha" operator="arithmetic" k2="-1" k3="1"/>
<feColorMatrix type="matrix" values="0 0 0 0 0 0 0 0 0 0 0 0 0 0 0 0 0 0 0.1 0"/>
<feBlend mode="normal" in2="shape" result="effect1_innerShadow_2_4966"/>
</filter>
<filter id="filter2_d_2_4966" x="180" y="183" width="82" height="82" filterUnits="userSpaceOnUse" color-interpolation-filters="sRGB">
<feFlood flood-opacity="0" result="BackgroundImageFix"/>
<feColorMatrix in="SourceAlpha" type="matrix" values="0 0 0 0 0 0 0 0 0 0 0 0 0 0 0 0 0 0 127 0" result="hardAlpha"/>
<feOffset/>
<feGaussianBlur stdDeviation="5"/>
<feComposite in2="hardAlpha" operator="out"/>
<feColorMatrix type="matrix" values="0 0 0 0 0 0 0 0 0 0 0 0 0 0 0 0 0 0 0.1 0"/>
<feBlend mode="normal" in2="BackgroundImageFix" result="effect1_dropShadow_2_4966"/>
<feBlend mode="normal" in="SourceGraphic" in2="effect1_dropShadow_2_4966" result="shape"/>
</filter>
<linearGradient id="paint0_linear_2_4966" x1="221.5" y1="0" x2="221.5" y2="385" gradientUnits="userSpaceOnUse">
<stop offset="0.35" stop-color="#D9D9D9"/>
<stop offset="1" stop-color="#737373" stop-opacity="0"/>
</linearGradient>
</defs>
</svg>
