<svg width="90" height="32" viewBox="0 0 90 32" fill="none" xmlns="http://www.w3.org/2000/svg">
<g clip-path="url(#clip0_1369_2177)">
<path d="M15.4642 6C9.94962 6 5.42968 10.2212 5 15.5849L10.6286 17.8934C11.1057 17.5707 11.6826 17.3799 12.3022 17.3799C12.3568 17.3799 12.4138 17.3799 12.4684 17.3846L14.9705 13.7853V13.7334C14.9705 11.5663 16.7462 9.80429 18.9302 9.80429C21.1142 9.80429 22.8899 11.5663 22.8899 13.7334C22.8899 15.9006 21.1142 17.6626 18.9302 17.6626C18.8993 17.6626 18.8708 17.6626 18.84 17.6626L15.2696 20.1901C15.2696 20.2349 15.272 20.282 15.272 20.3291C15.272 21.9568 13.9378 23.2783 12.2998 23.2783C10.8612 23.2783 9.65763 22.2583 9.38463 20.9086L5.36084 19.2597C6.60714 23.634 10.6571 26.84 15.4642 26.84C21.2637 26.84 25.9665 22.1735 25.9665 16.4188C25.9665 10.6641 21.2637 6 15.4642 6Z" fill="#4B5563"/>
<path d="M11.582 21.8095L10.293 21.2795C10.5209 21.7506 10.9173 22.1463 11.4419 22.3654C12.5767 22.8342 13.8871 22.2994 14.3595 21.1735C14.5898 20.6293 14.5898 20.0263 14.3619 19.4798C14.134 18.9333 13.7067 18.5069 13.1583 18.2784C12.6123 18.0523 12.0283 18.0617 11.5132 18.2549L12.8449 18.8014C13.6829 19.1476 14.077 20.1017 13.728 20.9332C13.3791 21.7647 12.4176 22.1581 11.5796 21.8095" fill="#4B5563"/>
<path d="M21.5696 13.7366C21.5696 12.2926 20.3851 11.1172 18.9298 11.1172C17.4746 11.1172 16.29 12.2926 16.29 13.7366C16.29 15.1806 17.4746 16.3537 18.9298 16.3537C20.3851 16.3537 21.5696 15.1782 21.5696 13.7366ZM16.9524 13.7319C16.9524 12.646 17.8402 11.765 18.9346 11.765C20.029 11.765 20.9168 12.646 20.9168 13.7319C20.9168 14.8178 20.029 15.6988 18.9346 15.6988C17.8402 15.6988 16.9524 14.8178 16.9524 13.7319Z" fill="#4B5563"/>
</g>
<path d="M42.912 22.096C42.08 22.096 41.28 21.9627 40.512 21.696C39.7547 21.4187 39.168 21.0667 38.752 20.64L39.216 19.728C39.6107 20.112 40.1387 20.4373 40.8 20.704C41.472 20.96 42.176 21.088 42.912 21.088C43.616 21.088 44.1867 21.0027 44.624 20.832C45.072 20.6507 45.3973 20.4107 45.6 20.112C45.8133 19.8133 45.92 19.4827 45.92 19.12C45.92 18.6827 45.792 18.3307 45.536 18.064C45.2907 17.7973 44.9653 17.5893 44.56 17.44C44.1547 17.28 43.7067 17.1413 43.216 17.024C42.7253 16.9067 42.2347 16.784 41.744 16.656C41.2533 16.5173 40.8 16.336 40.384 16.112C39.9787 15.888 39.648 15.5947 39.392 15.232C39.1467 14.8587 39.024 14.3733 39.024 13.776C39.024 13.2213 39.168 12.7147 39.456 12.256C39.7547 11.7867 40.208 11.4133 40.816 11.136C41.424 10.848 42.2027 10.704 43.152 10.704C43.7813 10.704 44.4053 10.7947 45.024 10.976C45.6427 11.1467 46.176 11.3867 46.624 11.696L46.224 12.64C45.744 12.32 45.232 12.0853 44.688 11.936C44.1547 11.7867 43.6373 11.712 43.136 11.712C42.464 11.712 41.9093 11.8027 41.472 11.984C41.0347 12.1653 40.7093 12.4107 40.496 12.72C40.2933 13.0187 40.192 13.36 40.192 13.744C40.192 14.1813 40.3147 14.5333 40.56 14.8C40.816 15.0667 41.1467 15.2747 41.552 15.424C41.968 15.5733 42.4213 15.7067 42.912 15.824C43.4027 15.9413 43.888 16.0693 44.368 16.208C44.8587 16.3467 45.3067 16.528 45.712 16.752C46.128 16.9653 46.4587 17.2533 46.704 17.616C46.96 17.9787 47.088 18.4533 47.088 19.04C47.088 19.584 46.9387 20.0907 46.64 20.56C46.3413 21.0187 45.8827 21.392 45.264 21.68C44.656 21.9573 43.872 22.096 42.912 22.096ZM52.0838 22.08C51.2944 22.08 50.6864 21.8667 50.2598 21.44C49.8331 21.0133 49.6198 20.4107 49.6198 19.632V11.744H50.7558V19.568C50.7558 20.0587 50.8784 20.4373 51.1238 20.704C51.3798 20.9707 51.7424 21.104 52.2118 21.104C52.7131 21.104 53.1291 20.96 53.4598 20.672L53.8598 21.488C53.6358 21.6907 53.3638 21.84 53.0438 21.936C52.7344 22.032 52.4144 22.08 52.0838 22.08ZM48.1158 14.544V13.6H53.3158V14.544H48.1158ZM59.1989 22.08C58.3242 22.08 57.5562 21.8987 56.8949 21.536C56.2335 21.1627 55.7162 20.656 55.3429 20.016C54.9695 19.3653 54.7829 18.624 54.7829 17.792C54.7829 16.96 54.9589 16.224 55.3109 15.584C55.6735 14.944 56.1642 14.4427 56.7829 14.08C57.4122 13.7067 58.1162 13.52 58.8949 13.52C59.6842 13.52 60.3829 13.7013 60.9909 14.064C61.6095 14.416 62.0949 14.9173 62.4469 15.568C62.7989 16.208 62.9749 16.9493 62.9749 17.792C62.9749 17.8453 62.9695 17.904 62.9589 17.968C62.9589 18.0213 62.9589 18.08 62.9589 18.144H55.6469V17.296H62.3509L61.9029 17.632C61.9029 17.024 61.7695 16.4853 61.5029 16.016C61.2469 15.536 60.8949 15.1627 60.4469 14.896C59.9989 14.6293 59.4815 14.496 58.8949 14.496C58.3189 14.496 57.8015 14.6293 57.3429 14.896C56.8842 15.1627 56.5269 15.536 56.2709 16.016C56.0149 16.496 55.8869 17.0453 55.8869 17.664V17.84C55.8869 18.48 56.0255 19.0453 56.3029 19.536C56.5909 20.016 56.9855 20.3947 57.4869 20.672C57.9989 20.9387 58.5802 21.072 59.2309 21.072C59.7429 21.072 60.2175 20.9813 60.6549 20.8C61.1029 20.6187 61.4869 20.3413 61.8069 19.968L62.4469 20.704C62.0735 21.152 61.6042 21.4933 61.0389 21.728C60.4842 21.9627 59.8709 22.08 59.1989 22.08ZM70.3168 22V20.144L70.2688 19.84V16.736C70.2688 16.0213 70.0661 15.472 69.6608 15.088C69.2661 14.704 68.6741 14.512 67.8848 14.512C67.3408 14.512 66.8234 14.6027 66.3328 14.784C65.8421 14.9653 65.4261 15.2053 65.0848 15.504L64.5728 14.656C64.9994 14.2933 65.5114 14.016 66.1088 13.824C66.7061 13.6213 67.3354 13.52 67.9968 13.52C69.0848 13.52 69.9221 13.792 70.5088 14.336C71.1061 14.8693 71.4048 15.6853 71.4048 16.784V22H70.3168ZM67.4208 22.08C66.7914 22.08 66.2421 21.9787 65.7728 21.776C65.3141 21.5627 64.9621 21.2747 64.7168 20.912C64.4714 20.5387 64.3488 20.112 64.3488 19.632C64.3488 19.1947 64.4501 18.8 64.6528 18.448C64.8661 18.0853 65.2074 17.7973 65.6768 17.584C66.1568 17.36 66.7968 17.248 67.5968 17.248H70.4928V18.096H67.6288C66.8181 18.096 66.2528 18.24 65.9328 18.528C65.6234 18.816 65.4688 19.1733 65.4688 19.6C65.4688 20.08 65.6554 20.464 66.0288 20.752C66.4021 21.04 66.9248 21.184 67.5968 21.184C68.2368 21.184 68.7861 21.04 69.2448 20.752C69.7141 20.4533 70.0554 20.0267 70.2688 19.472L70.5248 20.256C70.3114 20.8107 69.9381 21.2533 69.4048 21.584C68.8821 21.9147 68.2208 22.08 67.4208 22.08ZM84.9863 13.52C85.6689 13.52 86.2609 13.6533 86.7623 13.92C87.2743 14.176 87.6689 14.5707 87.9463 15.104C88.2343 15.6373 88.3783 16.3093 88.3783 17.12V22H87.2423V17.232C87.2423 16.3467 87.0289 15.68 86.6023 15.232C86.1863 14.7733 85.5943 14.544 84.8263 14.544C84.2503 14.544 83.7489 14.6667 83.3223 14.912C82.9063 15.1467 82.5809 15.4933 82.3463 15.952C82.1223 16.4 82.0103 16.944 82.0103 17.584V22H80.8743V17.232C80.8743 16.3467 80.6609 15.68 80.2343 15.232C79.8076 14.7733 79.2103 14.544 78.4423 14.544C77.8769 14.544 77.3809 14.6667 76.9543 14.912C76.5276 15.1467 76.1969 15.4933 75.9623 15.952C75.7383 16.4 75.6263 16.944 75.6263 17.584V22H74.4903V13.6H75.5783V15.872L75.4023 15.472C75.6583 14.864 76.0689 14.3893 76.6343 14.048C77.2103 13.696 77.8876 13.52 78.6663 13.52C79.4876 13.52 80.1863 13.728 80.7623 14.144C81.3383 14.5493 81.7116 15.1627 81.8823 15.984L81.4343 15.808C81.6796 15.1253 82.1116 14.576 82.7303 14.16C83.3596 13.7333 84.1116 13.52 84.9863 13.52Z" fill="#4B5563"/>
<defs>
<clipPath id="clip0_1369_2177">
<rect width="21" height="21" fill="white" transform="translate(5 6)"/>
</clipPath>
</defs>
</svg>
