<svg width="114" height="32" viewBox="0 0 114 32" fill="none" xmlns="http://www.w3.org/2000/svg">
<path d="M26.8702 16.7317V16.3152C26.8702 15.8199 26.4645 15.4146 25.9687 15.4146H25.1573C24.6615 15.4146 24.2558 15.8199 24.2558 16.3152V16.7317H22.7346L22.4416 21.3358H28.6957L28.4028 16.7317H26.8702ZM24.7066 16.3039C24.7066 16.0563 24.9094 15.8537 25.1573 15.8537H25.9687C26.2166 15.8537 26.4194 16.0563 26.4194 16.3039V16.7205H24.7066V16.3039ZM22.9149 20.8856L23.1515 17.1707H24.2558V18.0263C24.2558 18.0488 24.2671 18.06 24.2896 18.06H24.6728C24.6953 18.06 24.7066 18.0488 24.7066 18.0263V17.1707H26.4194V18.0263C26.4194 18.0488 26.4307 18.06 26.4533 18.06H26.8364C26.8589 18.06 26.8702 18.0488 26.8702 18.0263V17.1707H27.9745L28.2112 20.8856H22.9149ZM10.7446 13.1182V14.8068H11.6912V13.0507C11.6912 11.9475 10.9249 11.4296 10.1924 11.4296C9.8318 11.4296 9.51628 11.576 9.32471 11.8124H9.31344V11.531H8.36686V14.8068H9.31344V13.2083C9.31344 12.5666 9.66277 12.2964 10.0572 12.2964C10.3276 12.2964 10.7446 12.4765 10.7446 13.1182ZM12.5025 14.8068H13.4491V12.2964H14.0914V11.5197H13.4491V10.6191H12.5025V11.5197H11.8715V12.2964H12.5025V14.8068ZM6.77796 14.8068H7.72454V11.531H6.77796V14.8068ZM7.25125 11.1032C7.55551 11.1032 7.80342 10.8555 7.80342 10.5516C7.80342 10.2477 7.55551 10 7.25125 10C6.94699 10 6.69908 10.2477 6.69908 10.5516C6.69908 10.8555 6.94699 11.1032 7.25125 11.1032ZM15.8831 11.4296C14.8915 11.4296 14.1703 12.2964 14.1703 13.1632C14.1703 14.0525 14.914 14.9081 15.8944 14.9081C16.6043 14.9081 17.1903 14.5028 17.4495 14.0075L16.672 13.7373C16.4691 13.9962 16.2212 14.1088 15.8944 14.1088C15.5563 14.1088 15.1732 13.8949 15.0831 13.4672H17.01C17.427 13.4672 17.6411 13.3884 17.6411 13.0732C17.6073 12.3977 17.0213 11.4296 15.8831 11.4296ZM15.0831 12.8143C15.2295 12.3977 15.5676 12.2402 15.8944 12.2402C16.3677 12.2402 16.6381 12.5441 16.7283 12.8143H15.0831ZM24.2108 14.5591H24.222V14.7955H25.1799V10.1914H24.222V11.7674H24.2108C24.1319 11.6548 23.7826 11.4296 23.3318 11.4296C22.3965 11.4296 21.5964 12.2064 21.5964 13.1632C21.5964 14.1201 22.3852 14.8968 23.3318 14.8968C23.7826 14.9081 24.1319 14.6717 24.2108 14.5591ZM22.4866 13.1632C22.4866 12.6792 22.8698 12.2739 23.3656 12.2739C23.8614 12.2739 24.2333 12.6679 24.2333 13.1632C24.2333 13.6585 23.8614 14.0525 23.3656 14.0525C22.8698 14.0525 22.4866 13.6585 22.4866 13.1632ZM27.2533 14.9081C28.2225 14.9081 29 14.1313 29 13.1745C29 12.2176 28.2225 11.4409 27.2533 11.4409C26.2842 11.4409 25.5067 12.2176 25.5067 13.1745C25.5067 14.1201 26.2842 14.9081 27.2533 14.9081ZM27.2533 12.2852C27.7266 12.2852 28.121 12.6792 28.121 13.1632C28.121 13.6473 27.7379 14.0413 27.2533 14.0413C26.7801 14.0413 26.3856 13.6473 26.3856 13.1632C26.3856 12.6792 26.7801 12.2852 27.2533 12.2852ZM3.02546 11.9475L4.95242 14.4916C5.15526 14.7505 5.34683 14.8293 5.49332 14.8293C5.85392 14.8293 6.04549 14.6154 6.04549 14.3002V10.1914H5.02003V13.0394L3.09307 10.5066C2.89023 10.2477 2.69866 10.1689 2.55217 10.1689C2.19157 10.1689 2 10.3827 2 10.6979V14.8068H3.02546V11.9475ZM18.9032 13.2083C18.9032 12.5666 19.2525 12.2964 19.6469 12.2964C19.9174 12.2964 20.3343 12.4653 20.3343 13.1182V14.8068H21.2922V13.0507C21.2922 11.9475 20.5259 11.4296 19.7934 11.4296C19.4328 11.4296 19.1173 11.576 18.9257 11.8124H18.9032V11.531H17.9566V14.8068H18.9032V13.2083ZM6.12437 15.8987L5.42571 16.8668V16.878H5.43698L6.47371 16.2814C6.48497 16.2814 6.48497 16.2702 6.47371 16.2589L6.14691 15.8874C6.13564 15.8987 6.12437 15.8987 6.12437 15.8987ZM12.0856 17.2946C11.725 17.2946 11.4094 17.4409 11.2179 17.6773H11.2066V16.0563H10.26V20.6604H11.2066V19.0732C11.2066 18.4315 11.5559 18.1614 11.9503 18.1614C12.2208 18.1614 12.6377 18.3302 12.6377 18.9831V20.6717H13.5956V18.9156C13.5843 17.8124 12.8293 17.2946 12.0856 17.2946ZM15.6578 17.2946C14.6886 17.2946 13.9111 18.0713 13.9111 19.0281C13.9111 19.985 14.6886 20.7617 15.6578 20.7617C16.6269 20.7617 17.4044 19.985 17.4044 19.0281C17.4044 18.0713 16.6269 17.2946 15.6578 17.2946ZM15.6578 19.9174C15.1845 19.9174 14.7901 19.5235 14.7901 19.0394C14.7901 18.5553 15.1732 18.1614 15.6578 18.1614C16.1311 18.1614 16.5255 18.5553 16.5255 19.0394C16.5142 19.5235 16.1311 19.9174 15.6578 19.9174ZM19.568 17.2946C19.1173 17.2946 18.7679 17.5197 18.6891 17.6323H18.6778V17.3959H17.7312V22H18.6778V20.424H18.6891C18.7679 20.5366 19.1173 20.7617 19.568 20.7617C20.5033 20.7617 21.2922 19.9737 21.2922 19.0281C21.3034 18.0826 20.5146 17.2946 19.568 17.2946ZM19.5342 19.9174C19.0384 19.9174 18.6665 19.5235 18.6665 19.0281C18.6665 18.5328 19.0384 18.1388 19.5342 18.1388C20.0301 18.1388 20.4132 18.5328 20.4132 19.0281C20.4132 19.5235 20.0413 19.9174 19.5342 19.9174ZM4.33264 19.9287C4.06219 19.9287 3.7692 19.8161 3.61144 19.6248L5.52713 18.5103C5.9328 18.2739 6.12437 18.0713 5.95534 17.7561C5.68489 17.3283 4.98623 16.8668 4.24249 16.8668C3.18322 16.8668 2.31553 17.8011 2.31553 18.8368C2.31553 19.9512 3.29591 20.818 4.36644 20.818C5.3581 20.818 6.24833 20.1088 6.29341 19.0732H5.31302C5.26795 19.5347 4.87354 19.9287 4.33264 19.9287ZM4.29883 17.7223C4.55801 17.7223 4.77212 17.8236 4.96369 17.9925L3.23957 18.9831C3.12688 18.3302 3.63397 17.7223 4.29883 17.7223ZM4.28756 15.4934L4.70451 16.6191L4.71578 16.6304C4.71578 16.6304 4.72705 16.6304 4.72705 16.6191L4.8172 15.4259C4.8172 15.4146 4.80593 15.4146 4.80593 15.4146L4.32137 15.4822C4.28756 15.4822 4.27629 15.4822 4.28756 15.4934ZM8.49082 17.9024C8.0288 17.7448 7.67947 17.6323 7.67947 17.3171C7.67947 17.1032 7.87104 16.9006 8.22037 16.9006C8.58097 16.9006 8.78381 17.0919 8.95284 17.227L9.74165 16.6754C9.40359 16.2589 8.84015 15.9212 8.23164 15.9212C7.39775 15.9212 6.67654 16.5291 6.67654 17.3283C6.67654 17.925 7.08222 18.4878 7.91611 18.7692C8.44574 18.9381 8.77254 19.0507 8.77254 19.3884C8.77254 19.6248 8.53589 19.8274 8.25417 19.8274C7.90484 19.8274 7.61185 19.591 7.39775 19.3996L6.56386 19.985C6.9808 20.469 7.63439 20.818 8.23164 20.818C9.15568 20.818 9.798 20.1088 9.798 19.3771C9.798 18.7917 9.48247 18.2402 8.49082 17.9024ZM5.25668 15.4709L5.08765 16.6529C5.08765 16.6529 5.08765 16.6642 5.09891 16.6642H5.11018L5.7525 15.651C5.7525 15.6398 5.7525 15.6285 5.74124 15.6285L5.27922 15.4597C5.26795 15.4597 5.25668 15.4597 5.25668 15.4709Z" fill="#4B5563"/>
<path d="M39.824 22V10.8H40.8L48.528 20.528H48.016V10.8H49.184V22H48.208L40.496 12.272H41.008V22H39.824ZM52.5996 22V13.6H53.7356V22H52.5996ZM53.1756 11.744C52.941 11.744 52.7436 11.664 52.5836 11.504C52.4236 11.344 52.3436 11.152 52.3436 10.928C52.3436 10.704 52.4236 10.5173 52.5836 10.368C52.7436 10.208 52.941 10.128 53.1756 10.128C53.4103 10.128 53.6076 10.2027 53.7676 10.352C53.9276 10.5013 54.0076 10.688 54.0076 10.912C54.0076 11.1467 53.9276 11.344 53.7676 11.504C53.6183 11.664 53.421 11.744 53.1756 11.744ZM61.1845 13.52C61.8672 13.52 62.4645 13.6533 62.9765 13.92C63.4992 14.176 63.9045 14.5707 64.1925 15.104C64.4912 15.6373 64.6405 16.3093 64.6405 17.12V22H63.5045V17.232C63.5045 16.3467 63.2805 15.68 62.8325 15.232C62.3952 14.7733 61.7765 14.544 60.9765 14.544C60.3792 14.544 59.8565 14.6667 59.4085 14.912C58.9712 15.1467 58.6298 15.4933 58.3845 15.952C58.1498 16.4 58.0325 16.944 58.0325 17.584V22H56.8965V13.6H57.9845V15.904L57.8085 15.472C58.0752 14.864 58.5018 14.3893 59.0885 14.048C59.6752 13.696 60.3738 13.52 61.1845 13.52ZM70.365 22.08C69.5757 22.08 68.9677 21.8667 68.541 21.44C68.1143 21.0133 67.901 20.4107 67.901 19.632V11.744H69.037V19.568C69.037 20.0587 69.1597 20.4373 69.405 20.704C69.661 20.9707 70.0237 21.104 70.493 21.104C70.9943 21.104 71.4103 20.96 71.741 20.672L72.141 21.488C71.917 21.6907 71.645 21.84 71.325 21.936C71.0157 22.032 70.6957 22.08 70.365 22.08ZM66.397 14.544V13.6H71.597V14.544H66.397ZM77.4801 22.08C76.6055 22.08 75.8375 21.8987 75.1761 21.536C74.5148 21.1627 73.9975 20.656 73.6241 20.016C73.2508 19.3653 73.0641 18.624 73.0641 17.792C73.0641 16.96 73.2401 16.224 73.5921 15.584C73.9548 14.944 74.4455 14.4427 75.0641 14.08C75.6935 13.7067 76.3975 13.52 77.1761 13.52C77.9655 13.52 78.6641 13.7013 79.2721 14.064C79.8908 14.416 80.3761 14.9173 80.7281 15.568C81.0801 16.208 81.2561 16.9493 81.2561 17.792C81.2561 17.8453 81.2508 17.904 81.2401 17.968C81.2401 18.0213 81.2401 18.08 81.2401 18.144H73.9281V17.296H80.6321L80.1841 17.632C80.1841 17.024 80.0508 16.4853 79.7841 16.016C79.5281 15.536 79.1761 15.1627 78.7281 14.896C78.2801 14.6293 77.7628 14.496 77.1761 14.496C76.6001 14.496 76.0828 14.6293 75.6241 14.896C75.1655 15.1627 74.8081 15.536 74.5521 16.016C74.2961 16.496 74.1681 17.0453 74.1681 17.664V17.84C74.1681 18.48 74.3068 19.0453 74.5841 19.536C74.8721 20.016 75.2668 20.3947 75.7681 20.672C76.2801 20.9387 76.8615 21.072 77.5121 21.072C78.0241 21.072 78.4988 20.9813 78.9361 20.8C79.3841 20.6187 79.7681 20.3413 80.0881 19.968L80.7281 20.704C80.3548 21.152 79.8855 21.4933 79.3201 21.728C78.7655 21.9627 78.1521 22.08 77.4801 22.08ZM87.8564 13.52C88.539 13.52 89.1364 13.6533 89.6484 13.92C90.171 14.176 90.5764 14.5707 90.8644 15.104C91.163 15.6373 91.3124 16.3093 91.3124 17.12V22H90.1764V17.232C90.1764 16.3467 89.9524 15.68 89.5044 15.232C89.067 14.7733 88.4484 14.544 87.6484 14.544C87.051 14.544 86.5284 14.6667 86.0804 14.912C85.643 15.1467 85.3017 15.4933 85.0564 15.952C84.8217 16.4 84.7044 16.944 84.7044 17.584V22H83.5684V13.6H84.6564V15.904L84.4804 15.472C84.747 14.864 85.1737 14.3893 85.7604 14.048C86.347 13.696 87.0457 13.52 87.8564 13.52ZM97.7249 22.08C96.9249 22.08 96.2049 21.8987 95.5649 21.536C94.9355 21.1733 94.4395 20.672 94.0769 20.032C93.7142 19.3813 93.5329 18.6347 93.5329 17.792C93.5329 16.9387 93.7142 16.192 94.0769 15.552C94.4395 14.912 94.9355 14.416 95.5649 14.064C96.2049 13.7013 96.9249 13.52 97.7249 13.52C98.4609 13.52 99.1169 13.6853 99.6929 14.016C100.28 14.3467 100.744 14.832 101.085 15.472C101.437 16.1013 101.613 16.8747 101.613 17.792C101.613 18.6987 101.442 19.472 101.101 20.112C100.76 20.752 100.296 21.2427 99.7089 21.584C99.1329 21.9147 98.4715 22.08 97.7249 22.08ZM97.8049 21.072C98.4022 21.072 98.9355 20.9387 99.4049 20.672C99.8849 20.3947 100.258 20.0107 100.525 19.52C100.802 19.0187 100.941 18.4427 100.941 17.792C100.941 17.1307 100.802 16.5547 100.525 16.064C100.258 15.5733 99.8849 15.1947 99.4049 14.928C98.9355 14.6507 98.4022 14.512 97.8049 14.512C97.2182 14.512 96.6902 14.6507 96.2209 14.928C95.7515 15.1947 95.3782 15.5733 95.1009 16.064C94.8235 16.5547 94.6849 17.1307 94.6849 17.792C94.6849 18.4427 94.8235 19.0187 95.1009 19.52C95.3782 20.0107 95.7515 20.3947 96.2209 20.672C96.6902 20.9387 97.2182 21.072 97.8049 21.072ZM100.973 22V19.472L101.085 17.776L100.925 16.08V10.128H102.061V22H100.973ZM108.649 22.08C107.838 22.08 107.107 21.8987 106.457 21.536C105.817 21.1627 105.31 20.656 104.937 20.016C104.563 19.3653 104.377 18.624 104.377 17.792C104.377 16.9493 104.563 16.208 104.937 15.568C105.31 14.928 105.817 14.4267 106.457 14.064C107.097 13.7013 107.827 13.52 108.649 13.52C109.481 13.52 110.217 13.7013 110.857 14.064C111.507 14.4267 112.014 14.928 112.377 15.568C112.75 16.208 112.937 16.9493 112.937 17.792C112.937 18.624 112.75 19.3653 112.377 20.016C112.014 20.656 111.507 21.1627 110.857 21.536C110.206 21.8987 109.47 22.08 108.649 22.08ZM108.649 21.072C109.257 21.072 109.795 20.9387 110.265 20.672C110.734 20.3947 111.102 20.0107 111.369 19.52C111.646 19.0187 111.785 18.4427 111.785 17.792C111.785 17.1307 111.646 16.5547 111.369 16.064C111.102 15.5733 110.734 15.1947 110.265 14.928C109.795 14.6507 109.262 14.512 108.665 14.512C108.067 14.512 107.534 14.6507 107.065 14.928C106.595 15.1947 106.222 15.5733 105.945 16.064C105.667 16.5547 105.529 17.1307 105.529 17.792C105.529 18.4427 105.667 19.0187 105.945 19.52C106.222 20.0107 106.595 20.3947 107.065 20.672C107.534 20.9387 108.062 21.072 108.649 21.072Z" fill="#4B5563"/>
</svg>
