<svg width="78" height="32" viewBox="0 0 78 32" fill="none" xmlns="http://www.w3.org/2000/svg">
<g clip-path="url(#clip0_1369_2185)">
<path d="M49.5523 16.3348C49.3128 16.1244 49.0456 15.9498 48.7587 15.8157C49.655 15.3259 50.2153 14.3667 50.2145 13.3229C50.2145 12.5262 49.9294 9.93599 46.2788 9.93599H41.3629V15.303H39.7258C39.5131 15.5878 39.0305 16.2714 38.8473 16.5526H41.3629V22.3845H46.2806C48.9437 22.3854 50.5987 20.9952 50.5987 18.7514C50.5987 17.7719 50.2386 16.9394 49.5532 16.3358M42.7221 11.2352H46.2797C47.2422 11.2352 48.8552 11.4815 48.8552 13.2135C48.8552 14.5229 47.916 15.303 46.2797 15.303H42.7221V11.2352ZM46.2788 21.0871H42.7213V16.5563H46.2788C47.6274 16.5563 49.2413 16.9394 49.2413 18.7247C49.2413 20.7802 47.3852 21.088 46.2788 21.088M56.9936 9.65023C53.5924 9.65023 51.2153 12.3241 51.2153 16.1538C51.2153 19.9836 53.5924 22.6611 56.9936 22.6611C60.3949 22.6611 62.7621 19.9891 62.7621 16.1538C62.7621 12.3186 60.3913 9.65023 56.9936 9.65023ZM56.9936 21.3444C54.4021 21.3444 52.5871 19.209 52.5871 16.1538C52.5871 13.0987 54.403 10.9651 56.9936 10.9651C59.5843 10.9651 61.3859 13.0996 61.3859 16.1538C61.3859 19.2081 59.5807 21.3444 56.9936 21.3444ZM9.02819 8.6055L9.01836 8.61377C7.09524 10.5626 6.01304 13.2227 6.01661 15.9976C6.01393 18.269 6.73867 20.4779 8.07914 22.2834C8.09255 22.3009 8.11399 22.311 8.13365 22.3009C8.15153 22.2899 8.15242 22.2669 8.14527 22.2476C7.37584 19.8016 11.3088 13.8723 13.3409 11.3868C13.3472 11.3786 13.3561 11.3685 13.3561 11.3565C13.3561 11.3427 13.3463 11.3317 13.3373 11.3225C9.91915 7.82449 9.00674 8.6248 9.01925 8.61377M23.1898 8.6055L23.1996 8.61377C25.1227 10.5617 26.204 13.2227 26.2005 15.9976C26.2031 18.269 25.4784 20.4779 24.1379 22.2834C24.1254 22.3009 24.1031 22.311 24.0834 22.3009C24.0664 22.2899 24.0655 22.2669 24.0718 22.2476C24.8412 19.8016 20.9119 13.8687 18.8806 11.3823C18.8735 11.374 18.8654 11.3639 18.8654 11.3529C18.8654 11.3372 18.8744 11.3271 18.8851 11.3179C22.3042 7.81989 23.2103 8.6248 23.1987 8.61469M16.1094 5.62109C18.146 5.62109 19.8216 6.19537 21.3658 7.13995C21.3846 7.15005 21.39 7.1721 21.3828 7.1914C21.3757 7.20978 21.3542 7.21437 21.3337 7.20886C19.3802 6.77424 16.4097 8.51086 16.13 8.68361C16.1237 8.6882 16.1175 8.69188 16.1085 8.69188C16.0987 8.69188 16.0924 8.68728 16.0862 8.68361C15.3418 8.24348 12.5965 6.76414 10.8673 7.21897C10.8477 7.22356 10.8271 7.21988 10.8182 7.20059C10.811 7.18129 10.8182 7.15924 10.8351 7.14913C12.3811 6.19537 14.0782 5.62109 16.1094 5.62109ZM16.1094 13.944C16.121 13.944 16.1336 13.9541 16.1416 13.9605C19.1612 16.322 24.3301 22.1585 22.7528 23.8096L22.7546 23.8078V23.8096H22.751C20.9137 25.4672 18.5526 26.3797 16.1085 26.3769C13.6644 26.3797 11.3025 25.4672 9.46518 23.8096C7.89058 22.1585 13.0585 16.322 16.0746 13.9605C16.0835 13.9541 16.0969 13.944 16.1094 13.944Z" fill="#4B5563"/>
</g>
<path d="M38.272 22L42.864 15.792V16.704L38.544 10.8H39.904L43.536 15.728L43.008 15.744L46.64 10.8H47.92L43.648 16.624V15.792L48.224 22H46.848L42.976 16.736H43.472L39.632 22H38.272ZM54.42 22.08C53.684 22.08 53.0227 21.9147 52.436 21.584C51.8493 21.2427 51.3853 20.752 51.044 20.112C50.7027 19.472 50.532 18.6987 50.532 17.792C50.532 16.8747 50.7027 16.1013 51.044 15.472C51.396 14.832 51.8653 14.3467 52.452 14.016C53.0387 13.6853 53.6947 13.52 54.42 13.52C55.22 13.52 55.9347 13.7013 56.564 14.064C57.204 14.416 57.7053 14.912 58.068 15.552C58.4307 16.192 58.612 16.9387 58.612 17.792C58.612 18.6347 58.4307 19.3813 58.068 20.032C57.7053 20.672 57.204 21.1733 56.564 21.536C55.9347 21.8987 55.22 22.08 54.42 22.08ZM50.084 22V10.128H51.22V16.08L51.06 17.776L51.172 19.472V22H50.084ZM54.34 21.072C54.9373 21.072 55.4707 20.9387 55.94 20.672C56.4093 20.3947 56.7827 20.0107 57.06 19.52C57.3373 19.0187 57.476 18.4427 57.476 17.792C57.476 17.1307 57.3373 16.5547 57.06 16.064C56.7827 15.5733 56.4093 15.1947 55.94 14.928C55.4707 14.6507 54.9373 14.512 54.34 14.512C53.7427 14.512 53.204 14.6507 52.724 14.928C52.2547 15.1947 51.8813 15.5733 51.604 16.064C51.3373 16.5547 51.204 17.1307 51.204 17.792C51.204 18.4427 51.3373 19.0187 51.604 19.52C51.8813 20.0107 52.2547 20.3947 52.724 20.672C53.204 20.9387 53.7427 21.072 54.34 21.072ZM64.3518 22.08C63.5411 22.08 62.8104 21.8987 62.1598 21.536C61.5198 21.1627 61.0131 20.656 60.6398 20.016C60.2664 19.3653 60.0798 18.624 60.0798 17.792C60.0798 16.9493 60.2664 16.208 60.6398 15.568C61.0131 14.928 61.5198 14.4267 62.1598 14.064C62.7998 13.7013 63.5304 13.52 64.3518 13.52C65.1838 13.52 65.9198 13.7013 66.5598 14.064C67.2104 14.4267 67.7171 14.928 68.0798 15.568C68.4531 16.208 68.6398 16.9493 68.6398 17.792C68.6398 18.624 68.4531 19.3653 68.0798 20.016C67.7171 20.656 67.2104 21.1627 66.5598 21.536C65.9091 21.8987 65.1731 22.08 64.3518 22.08ZM64.3518 21.072C64.9598 21.072 65.4984 20.9387 65.9678 20.672C66.4371 20.3947 66.8051 20.0107 67.0718 19.52C67.3491 19.0187 67.4878 18.4427 67.4878 17.792C67.4878 17.1307 67.3491 16.5547 67.0718 16.064C66.8051 15.5733 66.4371 15.1947 65.9678 14.928C65.4984 14.6507 64.9651 14.512 64.3678 14.512C63.7704 14.512 63.2371 14.6507 62.7678 14.928C62.2984 15.1947 61.9251 15.5733 61.6478 16.064C61.3704 16.5547 61.2318 17.1307 61.2318 17.792C61.2318 18.4427 61.3704 19.0187 61.6478 19.52C61.9251 20.0107 62.2984 20.3947 62.7678 20.672C63.2371 20.9387 63.7651 21.072 64.3518 21.072ZM69.3821 22L72.9341 17.392L72.9181 17.952L69.5421 13.6H70.8221L73.5901 17.2L73.1101 17.184L75.8781 13.6H77.1261L73.7181 18L73.7341 17.392L77.3181 22H76.0221L73.0941 18.16L73.5421 18.224L70.6621 22H69.3821Z" fill="#4B5563"/>
<defs>
<clipPath id="clip0_1369_2185">
<rect width="22" height="20" fill="white" transform="translate(5 6)"/>
</clipPath>
</defs>
</svg>
