<svg width="130" height="32" viewBox="0 0 130 32" fill="none" xmlns="http://www.w3.org/2000/svg">
<g clip-path="url(#clip0_1369_2190)">
<path fill-rule="evenodd" clip-rule="evenodd" d="M29.627 21.0017C29.1049 21.6636 27.8257 22.1357 27.8257 22.1357L18.3094 25.5702V23.0373L25.3127 20.5301C26.1075 20.244 26.2295 19.8396 25.5835 19.6273C24.9387 19.4144 23.7712 19.4754 22.9758 19.7627L18.3094 21.4141V18.7855L18.5783 18.694C18.5783 18.694 19.9268 18.2145 21.8229 18.0034C23.719 17.7936 26.0407 18.0321 27.8633 18.7263C29.9173 19.3784 30.1486 20.3398 29.627 21.0017ZM19.2152 16.6888V10.2115C19.2152 9.45083 19.0756 8.75052 18.3652 8.55226C17.8212 8.37718 17.4837 8.88472 17.4837 9.64482V25.8654L13.1299 24.477V5.13672C14.981 5.48199 17.6779 6.29821 19.1278 6.78928C22.8149 8.06119 24.065 9.64421 24.065 13.211C24.065 16.6876 21.9291 18.0052 19.2152 16.6888ZM5.14114 22.7726C3.03254 22.176 2.68162 20.9328 3.64272 20.2166C4.53096 19.5553 6.04152 19.0575 6.04152 19.0575L12.2841 16.8273V19.3699L7.7919 20.9852C6.99837 21.2713 6.87634 21.6764 7.52112 21.8887C8.16651 22.101 9.33464 22.0406 10.1294 21.7539L12.2841 20.9681V23.2429C12.1475 23.2673 11.9951 23.2917 11.8543 23.3155C9.69893 23.6693 7.40334 23.5217 5.14114 22.7726ZM28.2403 23.7798C28.5129 23.7798 28.7686 23.8859 28.961 24.0817C29.1535 24.2745 29.2597 24.5319 29.2597 24.8052C29.2597 25.0797 29.1535 25.3359 28.961 25.5287C28.7686 25.7233 28.5129 25.8294 28.2403 25.8294C27.9677 25.8294 27.7127 25.7233 27.5197 25.5287C27.3272 25.3359 27.2216 25.0797 27.2216 24.8052C27.2216 24.2403 27.6781 23.7798 28.2403 23.7798ZM27.3928 24.8052C27.3928 25.0327 27.4808 25.2469 27.6411 25.4067C27.8008 25.569 28.0145 25.6568 28.2403 25.6568C28.7084 25.6568 29.0879 25.2749 29.0879 24.8052C29.0879 24.5771 29.0005 24.3629 28.8396 24.2025C28.6799 24.0402 28.4662 23.953 28.2403 23.953C28.0145 23.953 27.8008 24.0402 27.6411 24.2025C27.4808 24.3629 27.3928 24.5771 27.3928 24.8052ZM28.5482 24.2531C28.6599 24.3025 28.7163 24.3977 28.7163 24.5331C28.7163 24.6027 28.7018 24.6612 28.672 24.707C28.6508 24.7399 28.6204 24.7668 28.5864 24.79C28.6131 24.8058 28.6368 24.8247 28.6544 24.8467C28.6787 24.8784 28.6927 24.929 28.6945 24.998L28.6999 25.1438C28.7018 25.1828 28.7042 25.2127 28.7103 25.231C28.7164 25.2578 28.7279 25.2749 28.7425 25.2804L28.7576 25.2877V25.3042V25.3292V25.3542H28.7327H28.5524H28.5378L28.5306 25.3414C28.5245 25.3292 28.5202 25.3152 28.516 25.2969C28.513 25.2804 28.5099 25.2518 28.5081 25.2078L28.499 25.0267C28.4966 24.9638 28.4753 24.9248 28.4352 24.904C28.4103 24.8925 28.3691 24.887 28.3132 24.887H28.0042V25.3292V25.3542H27.9787H27.8317H27.8068V25.3292V24.2391V24.2141H27.8317H28.3338C28.4201 24.2141 28.4923 24.2269 28.5482 24.2531ZM28.0042 24.7125H28.3187C28.3818 24.7125 28.4322 24.7009 28.468 24.6771C28.5008 24.6533 28.5166 24.61 28.5166 24.5472C28.5166 24.4788 28.4941 24.4343 28.4468 24.4105C28.4207 24.3977 28.3842 24.3904 28.3381 24.3904H28.0042V24.7125Z" fill="#4B5563"/>
</g>
<path d="M39.824 22V10.8H44.016C44.9653 10.8 45.7813 10.9547 46.464 11.264C47.1467 11.5627 47.6693 12 48.032 12.576C48.4053 13.1413 48.592 13.8293 48.592 14.64C48.592 15.4293 48.4053 16.112 48.032 16.688C47.6693 17.2533 47.1467 17.6907 46.464 18C45.7813 18.3093 44.9653 18.464 44.016 18.464H40.48L41.008 17.904V22H39.824ZM41.008 18L40.48 17.424H43.984C45.104 17.424 45.952 17.184 46.528 16.704C47.1147 16.2133 47.408 15.5253 47.408 14.64C47.408 13.744 47.1147 13.0507 46.528 12.56C45.952 12.0693 45.104 11.824 43.984 11.824H40.48L41.008 11.264V18ZM51.0684 22V10.128H52.2044V22H51.0684ZM60.6293 22V20.144L60.5813 19.84V16.736C60.5813 16.0213 60.3786 15.472 59.9733 15.088C59.5786 14.704 58.9866 14.512 58.1973 14.512C57.6533 14.512 57.1359 14.6027 56.6453 14.784C56.1546 14.9653 55.7386 15.2053 55.3973 15.504L54.8853 14.656C55.3119 14.2933 55.8239 14.016 56.4213 13.824C57.0186 13.6213 57.6479 13.52 58.3093 13.52C59.3973 13.52 60.2346 13.792 60.8213 14.336C61.4186 14.8693 61.7173 15.6853 61.7173 16.784V22H60.6293ZM57.7333 22.08C57.1039 22.08 56.5546 21.9787 56.0853 21.776C55.6266 21.5627 55.2746 21.2747 55.0293 20.912C54.7839 20.5387 54.6613 20.112 54.6613 19.632C54.6613 19.1947 54.7626 18.8 54.9653 18.448C55.1786 18.0853 55.5199 17.7973 55.9893 17.584C56.4693 17.36 57.1093 17.248 57.9093 17.248H60.8053V18.096H57.9413C57.1306 18.096 56.5653 18.24 56.2453 18.528C55.9359 18.816 55.7812 19.1733 55.7812 19.6C55.7812 20.08 55.9679 20.464 56.3413 20.752C56.7146 21.04 57.2373 21.184 57.9093 21.184C58.5493 21.184 59.0986 21.04 59.5573 20.752C60.0266 20.4533 60.3679 20.0267 60.5813 19.472L60.8373 20.256C60.6239 20.8107 60.2506 21.2533 59.7173 21.584C59.1946 21.9147 58.5333 22.08 57.7333 22.08ZM64.7105 25.184C64.3158 25.184 63.9372 25.12 63.5745 24.992C63.2225 24.864 62.9185 24.672 62.6625 24.416L63.1905 23.568C63.4038 23.7707 63.6332 23.9253 63.8785 24.032C64.1345 24.1493 64.4172 24.208 64.7265 24.208C65.0998 24.208 65.4198 24.1013 65.6865 23.888C65.9638 23.6853 66.2252 23.3227 66.4705 22.8L67.0145 21.568L67.1425 21.392L70.5985 13.6H71.7185L67.5105 23.008C67.2758 23.552 67.0145 23.984 66.7265 24.304C66.4492 24.624 66.1452 24.848 65.8145 24.976C65.4838 25.1147 65.1158 25.184 64.7105 25.184ZM66.9505 22.24L63.0785 13.6H64.2625L67.6865 21.312L66.9505 22.24ZM76.5214 22.096C75.6894 22.096 74.8894 21.9627 74.1214 21.696C73.364 21.4187 72.7774 21.0667 72.3614 20.64L72.8254 19.728C73.22 20.112 73.748 20.4373 74.4094 20.704C75.0814 20.96 75.7854 21.088 76.5214 21.088C77.2254 21.088 77.796 21.0027 78.2334 20.832C78.6814 20.6507 79.0067 20.4107 79.2094 20.112C79.4227 19.8133 79.5294 19.4827 79.5294 19.12C79.5294 18.6827 79.4014 18.3307 79.1454 18.064C78.9 17.7973 78.5747 17.5893 78.1694 17.44C77.764 17.28 77.316 17.1413 76.8254 17.024C76.3347 16.9067 75.844 16.784 75.3534 16.656C74.8627 16.5173 74.4094 16.336 73.9934 16.112C73.588 15.888 73.2574 15.5947 73.0014 15.232C72.756 14.8587 72.6334 14.3733 72.6334 13.776C72.6334 13.2213 72.7774 12.7147 73.0654 12.256C73.364 11.7867 73.8174 11.4133 74.4254 11.136C75.0334 10.848 75.812 10.704 76.7614 10.704C77.3907 10.704 78.0147 10.7947 78.6334 10.976C79.252 11.1467 79.7854 11.3867 80.2334 11.696L79.8334 12.64C79.3534 12.32 78.8414 12.0853 78.2974 11.936C77.764 11.7867 77.2467 11.712 76.7454 11.712C76.0734 11.712 75.5187 11.8027 75.0814 11.984C74.644 12.1653 74.3187 12.4107 74.1054 12.72C73.9027 13.0187 73.8014 13.36 73.8014 13.744C73.8014 14.1813 73.924 14.5333 74.1694 14.8C74.4254 15.0667 74.756 15.2747 75.1614 15.424C75.5774 15.5733 76.0307 15.7067 76.5214 15.824C77.012 15.9413 77.4974 16.0693 77.9774 16.208C78.468 16.3467 78.916 16.528 79.3214 16.752C79.7374 16.9653 80.068 17.2533 80.3134 17.616C80.5694 17.9787 80.6974 18.4533 80.6974 19.04C80.6974 19.584 80.548 20.0907 80.2494 20.56C79.9507 21.0187 79.492 21.392 78.8734 21.68C78.2654 21.9573 77.4814 22.096 76.5214 22.096ZM85.6931 22.08C84.9038 22.08 84.2958 21.8667 83.8691 21.44C83.4425 21.0133 83.2291 20.4107 83.2291 19.632V11.744H84.3651V19.568C84.3651 20.0587 84.4878 20.4373 84.7331 20.704C84.9891 20.9707 85.3518 21.104 85.8211 21.104C86.3225 21.104 86.7385 20.96 87.0691 20.672L87.4691 21.488C87.2451 21.6907 86.9731 21.84 86.6531 21.936C86.3438 22.032 86.0238 22.08 85.6931 22.08ZM81.7251 14.544V13.6H86.9251V14.544H81.7251ZM94.8011 22V20.144L94.7531 19.84V16.736C94.7531 16.0213 94.5505 15.472 94.1451 15.088C93.7505 14.704 93.1585 14.512 92.3691 14.512C91.8251 14.512 91.3078 14.6027 90.8171 14.784C90.3265 14.9653 89.9105 15.2053 89.5691 15.504L89.0571 14.656C89.4838 14.2933 89.9958 14.016 90.5931 13.824C91.1905 13.6213 91.8198 13.52 92.4811 13.52C93.5691 13.52 94.4065 13.792 94.9931 14.336C95.5905 14.8693 95.8891 15.6853 95.8891 16.784V22H94.8011ZM91.9051 22.08C91.2758 22.08 90.7265 21.9787 90.2571 21.776C89.7985 21.5627 89.4465 21.2747 89.2011 20.912C88.9558 20.5387 88.8331 20.112 88.8331 19.632C88.8331 19.1947 88.9345 18.8 89.1371 18.448C89.3505 18.0853 89.6918 17.7973 90.1611 17.584C90.6411 17.36 91.2811 17.248 92.0811 17.248H94.9771V18.096H92.1131C91.3025 18.096 90.7371 18.24 90.4171 18.528C90.1078 18.816 89.9531 19.1733 89.9531 19.6C89.9531 20.08 90.1398 20.464 90.5131 20.752C90.8865 21.04 91.4091 21.184 92.0811 21.184C92.7211 21.184 93.2705 21.04 93.7291 20.752C94.1985 20.4533 94.5398 20.0267 94.7531 19.472L95.0091 20.256C94.7958 20.8107 94.4225 21.2533 93.8891 21.584C93.3665 21.9147 92.7051 22.08 91.9051 22.08ZM101.631 22.08C100.841 22.08 100.233 21.8667 99.8066 21.44C99.38 21.0133 99.1666 20.4107 99.1666 19.632V11.744H100.303V19.568C100.303 20.0587 100.425 20.4373 100.671 20.704C100.927 20.9707 101.289 21.104 101.759 21.104C102.26 21.104 102.676 20.96 103.007 20.672L103.407 21.488C103.183 21.6907 102.911 21.84 102.591 21.936C102.281 22.032 101.961 22.08 101.631 22.08ZM97.6626 14.544V13.6H102.863V14.544H97.6626ZM105.475 22V13.6H106.611V22H105.475ZM106.051 11.744C105.816 11.744 105.619 11.664 105.459 11.504C105.299 11.344 105.219 11.152 105.219 10.928C105.219 10.704 105.299 10.5173 105.459 10.368C105.619 10.208 105.816 10.128 106.051 10.128C106.285 10.128 106.483 10.2027 106.643 10.352C106.803 10.5013 106.883 10.688 106.883 10.912C106.883 11.1467 106.803 11.344 106.643 11.504C106.493 11.664 106.296 11.744 106.051 11.744ZM113.196 22.08C112.385 22.08 111.654 21.8987 111.004 21.536C110.364 21.1627 109.857 20.656 109.484 20.016C109.11 19.3653 108.924 18.624 108.924 17.792C108.924 16.9493 109.11 16.208 109.484 15.568C109.857 14.928 110.364 14.4267 111.004 14.064C111.644 13.7013 112.374 13.52 113.196 13.52C114.028 13.52 114.764 13.7013 115.404 14.064C116.054 14.4267 116.561 14.928 116.924 15.568C117.297 16.208 117.484 16.9493 117.484 17.792C117.484 18.624 117.297 19.3653 116.924 20.016C116.561 20.656 116.054 21.1627 115.404 21.536C114.753 21.8987 114.017 22.08 113.196 22.08ZM113.196 21.072C113.804 21.072 114.342 20.9387 114.812 20.672C115.281 20.3947 115.649 20.0107 115.916 19.52C116.193 19.0187 116.332 18.4427 116.332 17.792C116.332 17.1307 116.193 16.5547 115.916 16.064C115.649 15.5733 115.281 15.1947 114.812 14.928C114.342 14.6507 113.809 14.512 113.212 14.512C112.614 14.512 112.081 14.6507 111.612 14.928C111.142 15.1947 110.769 15.5733 110.492 16.064C110.214 16.5547 110.076 17.1307 110.076 17.792C110.076 18.4427 110.214 19.0187 110.492 19.52C110.769 20.0107 111.142 20.3947 111.612 20.672C112.081 20.9387 112.609 21.072 113.196 21.072ZM124.091 13.52C124.773 13.52 125.371 13.6533 125.883 13.92C126.405 14.176 126.811 14.5707 127.099 15.104C127.397 15.6373 127.547 16.3093 127.547 17.12V22H126.411V17.232C126.411 16.3467 126.187 15.68 125.739 15.232C125.301 14.7733 124.683 14.544 123.883 14.544C123.285 14.544 122.763 14.6667 122.315 14.912C121.877 15.1467 121.536 15.4933 121.291 15.952C121.056 16.4 120.939 16.944 120.939 17.584V22H119.803V13.6H120.891V15.904L120.715 15.472C120.981 14.864 121.408 14.3893 121.995 14.048C122.581 13.696 123.28 13.52 124.091 13.52Z" fill="#4B5563"/>
<defs>
<clipPath id="clip0_1369_2190">
<rect width="27" height="21" fill="white" transform="translate(3 5)"/>
</clipPath>
</defs>
</svg>
