<svg width="95" height="32" viewBox="0 0 95 32" fill="none" xmlns="http://www.w3.org/2000/svg">
<path d="M14.7639 15.1328L4.09082 26.3001C4.09082 26.3001 4.09082 26.3001 4.09082 26.3062C4.41941 27.5153 5.53905 28.4145 6.87167 28.4145C7.40715 28.4145 7.90612 28.2748 8.33207 28.0257L8.36858 28.0074L20.3804 21.1782L14.7578 15.145L14.7639 15.1328Z" fill="#4B5563" fill-opacity="0.8"/>
<path d="M25.5646 13.2367H25.5524L20.368 10.2656L14.5264 15.3936L20.3923 21.1717L25.5463 18.2371C26.453 17.7571 27.0676 16.8153 27.0676 15.7338C27.0676 14.6523 26.4651 13.7228 25.5646 13.2367Z" fill="#4B5563" fill-opacity="0.6"/>
<path d="M4.09736 5.10938C4.03042 5.34026 4 5.58936 4 5.83847V25.5666C4.01217 25.8521 4.03042 26.0648 4.09736 26.2957L15.1356 15.4139L4.09736 5.10938Z" fill="#4B5563"/>
<path d="M14.843 15.7045L20.3621 10.2606L8.36858 3.40708C7.93046 3.15189 7.4254 3 6.87775 3C5.54513 3 4.41941 3.89314 4.09082 5.1083L14.843 15.7045Z" fill="#4B5563" fill-opacity="0.8"/>
<path d="M43.736 22.096C42.8827 22.096 42.0933 21.9573 41.368 21.68C40.6533 21.392 40.0293 20.992 39.496 20.48C38.9733 19.968 38.5627 19.3653 38.264 18.672C37.976 17.9787 37.832 17.2213 37.832 16.4C37.832 15.5787 37.976 14.8213 38.264 14.128C38.5627 13.4347 38.9787 12.832 39.512 12.32C40.0453 11.808 40.6693 11.4133 41.384 11.136C42.1093 10.848 42.8987 10.704 43.752 10.704C44.6053 10.704 45.384 10.8373 46.088 11.104C46.8027 11.3707 47.4107 11.776 47.912 12.32L47.176 13.072C46.7067 12.6027 46.1893 12.2667 45.624 12.064C45.0587 11.8613 44.4507 11.76 43.8 11.76C43.1067 11.76 42.4667 11.8773 41.88 12.112C41.304 12.336 40.7973 12.6613 40.36 13.088C39.9333 13.504 39.5973 13.9947 39.352 14.56C39.1173 15.1147 39 15.728 39 16.4C39 17.0613 39.1173 17.6747 39.352 18.24C39.5973 18.8053 39.9333 19.3013 40.36 19.728C40.7973 20.144 41.304 20.4693 41.88 20.704C42.4667 20.928 43.1013 21.04 43.784 21.04C44.424 21.04 45.0267 20.944 45.592 20.752C46.168 20.56 46.696 20.2347 47.176 19.776L47.848 20.672C47.3147 21.1413 46.6907 21.4987 45.976 21.744C45.2613 21.9787 44.5147 22.096 43.736 22.096ZM46.712 20.528V16.4H47.848V20.672L46.712 20.528ZM54.383 22.08C53.5723 22.08 52.8417 21.8987 52.191 21.536C51.551 21.1627 51.0443 20.656 50.671 20.016C50.2977 19.3653 50.111 18.624 50.111 17.792C50.111 16.9493 50.2977 16.208 50.671 15.568C51.0443 14.928 51.551 14.4267 52.191 14.064C52.831 13.7013 53.5617 13.52 54.383 13.52C55.215 13.52 55.951 13.7013 56.591 14.064C57.2417 14.4267 57.7483 14.928 58.111 15.568C58.4843 16.208 58.671 16.9493 58.671 17.792C58.671 18.624 58.4843 19.3653 58.111 20.016C57.7483 20.656 57.2417 21.1627 56.591 21.536C55.9403 21.8987 55.2043 22.08 54.383 22.08ZM54.383 21.072C54.991 21.072 55.5297 20.9387 55.999 20.672C56.4683 20.3947 56.8363 20.0107 57.103 19.52C57.3803 19.0187 57.519 18.4427 57.519 17.792C57.519 17.1307 57.3803 16.5547 57.103 16.064C56.8363 15.5733 56.4683 15.1947 55.999 14.928C55.5297 14.6507 54.9963 14.512 54.399 14.512C53.8017 14.512 53.2683 14.6507 52.799 14.928C52.3297 15.1947 51.9563 15.5733 51.679 16.064C51.4017 16.5547 51.263 17.1307 51.263 17.792C51.263 18.4427 51.4017 19.0187 51.679 19.52C51.9563 20.0107 52.3297 20.3947 52.799 20.672C53.2683 20.9387 53.7963 21.072 54.383 21.072ZM64.4143 22.08C63.6036 22.08 62.8729 21.8987 62.2223 21.536C61.5823 21.1627 61.0756 20.656 60.7023 20.016C60.3289 19.3653 60.1423 18.624 60.1423 17.792C60.1423 16.9493 60.3289 16.208 60.7023 15.568C61.0756 14.928 61.5823 14.4267 62.2223 14.064C62.8623 13.7013 63.5929 13.52 64.4143 13.52C65.2463 13.52 65.9823 13.7013 66.6223 14.064C67.2729 14.4267 67.7796 14.928 68.1423 15.568C68.5156 16.208 68.7023 16.9493 68.7023 17.792C68.7023 18.624 68.5156 19.3653 68.1423 20.016C67.7796 20.656 67.2729 21.1627 66.6223 21.536C65.9716 21.8987 65.2356 22.08 64.4143 22.08ZM64.4143 21.072C65.0223 21.072 65.5609 20.9387 66.0303 20.672C66.4996 20.3947 66.8676 20.0107 67.1343 19.52C67.4116 19.0187 67.5503 18.4427 67.5503 17.792C67.5503 17.1307 67.4116 16.5547 67.1343 16.064C66.8676 15.5733 66.4996 15.1947 66.0303 14.928C65.5609 14.6507 65.0276 14.512 64.4303 14.512C63.8329 14.512 63.2996 14.6507 62.8303 14.928C62.3609 15.1947 61.9876 15.5733 61.7103 16.064C61.4329 16.5547 61.2943 17.1307 61.2943 17.792C61.2943 18.4427 61.4329 19.0187 61.7103 19.52C61.9876 20.0107 62.3609 20.3947 62.8303 20.672C63.2996 20.9387 63.8276 21.072 64.4143 21.072ZM74.6055 25.184C73.8375 25.184 73.1015 25.072 72.3975 24.848C71.6935 24.624 71.1228 24.304 70.6855 23.888L71.2615 23.024C71.6562 23.376 72.1415 23.6533 72.7175 23.856C73.3042 24.0693 73.9228 24.176 74.5735 24.176C75.6402 24.176 76.4242 23.9253 76.9255 23.424C77.4268 22.9333 77.6775 22.1653 77.6775 21.12V19.024L77.8375 17.584L77.7255 16.144V13.6H78.8135V20.976C78.8135 22.4267 78.4562 23.488 77.7415 24.16C77.0375 24.8427 75.9922 25.184 74.6055 25.184ZM74.3975 21.68C73.5975 21.68 72.8775 21.5093 72.2375 21.168C71.5975 20.816 71.0908 20.3307 70.7175 19.712C70.3548 19.0933 70.1735 18.384 70.1735 17.584C70.1735 16.784 70.3548 16.08 70.7175 15.472C71.0908 14.8533 71.5975 14.3733 72.2375 14.032C72.8775 13.6907 73.5975 13.52 74.3975 13.52C75.1442 13.52 75.8162 13.6747 76.4135 13.984C77.0108 14.2933 77.4855 14.752 77.8375 15.36C78.1895 15.968 78.3655 16.7093 78.3655 17.584C78.3655 18.4587 78.1895 19.2 77.8375 19.808C77.4855 20.416 77.0108 20.88 76.4135 21.2C75.8162 21.52 75.1442 21.68 74.3975 21.68ZM74.5095 20.672C75.1282 20.672 75.6775 20.544 76.1575 20.288C76.6375 20.0213 77.0162 19.6587 77.2935 19.2C77.5708 18.7307 77.7095 18.192 77.7095 17.584C77.7095 16.976 77.5708 16.4427 77.2935 15.984C77.0162 15.5253 76.6375 15.168 76.1575 14.912C75.6775 14.6453 75.1282 14.512 74.5095 14.512C73.9015 14.512 73.3522 14.6453 72.8615 14.912C72.3815 15.168 72.0028 15.5253 71.7255 15.984C71.4588 16.4427 71.3255 16.976 71.3255 17.584C71.3255 18.192 71.4588 18.7307 71.7255 19.2C72.0028 19.6587 72.3815 20.0213 72.8615 20.288C73.3522 20.544 73.9015 20.672 74.5095 20.672ZM81.9746 22V10.128H83.1106V22H81.9746ZM89.8395 22.08C88.9648 22.08 88.1968 21.8987 87.5355 21.536C86.8742 21.1627 86.3568 20.656 85.9835 20.016C85.6102 19.3653 85.4235 18.624 85.4235 17.792C85.4235 16.96 85.5995 16.224 85.9515 15.584C86.3142 14.944 86.8048 14.4427 87.4235 14.08C88.0528 13.7067 88.7568 13.52 89.5355 13.52C90.3248 13.52 91.0235 13.7013 91.6315 14.064C92.2502 14.416 92.7355 14.9173 93.0875 15.568C93.4395 16.208 93.6155 16.9493 93.6155 17.792C93.6155 17.8453 93.6102 17.904 93.5995 17.968C93.5995 18.0213 93.5995 18.08 93.5995 18.144H86.2875V17.296H92.9915L92.5435 17.632C92.5435 17.024 92.4102 16.4853 92.1435 16.016C91.8875 15.536 91.5355 15.1627 91.0875 14.896C90.6395 14.6293 90.1222 14.496 89.5355 14.496C88.9595 14.496 88.4422 14.6293 87.9835 14.896C87.5248 15.1627 87.1675 15.536 86.9115 16.016C86.6555 16.496 86.5275 17.0453 86.5275 17.664V17.84C86.5275 18.48 86.6662 19.0453 86.9435 19.536C87.2315 20.016 87.6262 20.3947 88.1275 20.672C88.6395 20.9387 89.2208 21.072 89.8715 21.072C90.3835 21.072 90.8582 20.9813 91.2955 20.8C91.7435 20.6187 92.1275 20.3413 92.4475 19.968L93.0875 20.704C92.7142 21.152 92.2448 21.4933 91.6795 21.728C91.1248 21.9627 90.5115 22.08 89.8395 22.08Z" fill="#4B5563"/>
</svg>
