<svg width="86" height="32" viewBox="0 0 86 32" fill="none" xmlns="http://www.w3.org/2000/svg">
<g clip-path="url(#clip0_1369_2173)">
<path fill-rule="evenodd" clip-rule="evenodd" d="M17.036 6.08916C18.6474 4.01013 20.8885 4 20.8885 4C20.8885 4 21.222 5.95339 19.6209 7.83587C17.9101 9.846 15.9672 9.51773 15.9672 9.51773C15.9672 9.51773 15.6027 7.93718 17.036 6.08916Z" fill="#4B5563"/>
<path fill-rule="evenodd" clip-rule="evenodd" d="M16.1718 10.8879C17.0003 10.8879 18.5392 9.77344 20.5442 9.77344C23.9928 9.77344 25.3495 12.1747 25.3495 12.1747C25.3495 12.1747 22.6962 13.5019 22.6962 16.7218C22.6962 20.355 26.002 21.6073 26.002 21.6073C26.002 21.6073 23.6925 27.97 20.5711 27.97C19.1378 27.97 18.0235 27.0257 16.5136 27.0257C15.0036 27.0257 13.4481 28.0065 12.4518 28.0065C9.60179 28.0065 6.00195 21.972 6.00195 17.121C6.00195 12.2699 9.04669 9.83828 11.905 9.83828C13.7629 9.83828 15.2045 10.8859 16.1718 10.8859V10.8879Z" fill="#4B5563"/>
</g>
<path d="M38.032 22L43.152 10.8H44.32L49.44 22H48.192L43.488 11.488H43.968L39.264 22H38.032ZM40.048 19.008L40.4 18.048H46.912L47.264 19.008H40.048ZM55.3888 22.08C54.6634 22.08 54.0074 21.9147 53.4208 21.584C52.8341 21.2427 52.3648 20.7573 52.0128 20.128C51.6714 19.488 51.5008 18.7093 51.5008 17.792C51.5008 16.8747 51.6714 16.1013 52.0128 15.472C52.3541 14.832 52.8181 14.3467 53.4048 14.016C53.9914 13.6853 54.6528 13.52 55.3888 13.52C56.1888 13.52 56.9034 13.7013 57.5328 14.064C58.1728 14.416 58.6741 14.9173 59.0368 15.568C59.3994 16.208 59.5808 16.9493 59.5808 17.792C59.5808 18.6453 59.3994 19.392 59.0368 20.032C58.6741 20.672 58.1728 21.1733 57.5328 21.536C56.9034 21.8987 56.1888 22.08 55.3888 22.08ZM51.0528 25.104V13.6H52.1408V16.128L52.0288 17.808L52.1888 19.504V25.104H51.0528ZM55.3088 21.072C55.9061 21.072 56.4394 20.9387 56.9088 20.672C57.3781 20.3947 57.7514 20.0107 58.0288 19.52C58.3061 19.0187 58.4448 18.4427 58.4448 17.792C58.4448 17.1413 58.3061 16.5707 58.0288 16.08C57.7514 15.5893 57.3781 15.2053 56.9088 14.928C56.4394 14.6507 55.9061 14.512 55.3088 14.512C54.7114 14.512 54.1728 14.6507 53.6927 14.928C53.2234 15.2053 52.8501 15.5893 52.5728 16.08C52.3061 16.5707 52.1728 17.1413 52.1728 17.792C52.1728 18.4427 52.3061 19.0187 52.5728 19.52C52.8501 20.0107 53.2234 20.3947 53.6927 20.672C54.1728 20.9387 54.7114 21.072 55.3088 21.072ZM66.2325 22.08C65.5072 22.08 64.8512 21.9147 64.2645 21.584C63.6778 21.2427 63.2085 20.7573 62.8565 20.128C62.5152 19.488 62.3445 18.7093 62.3445 17.792C62.3445 16.8747 62.5152 16.1013 62.8565 15.472C63.1978 14.832 63.6618 14.3467 64.2485 14.016C64.8352 13.6853 65.4965 13.52 66.2325 13.52C67.0325 13.52 67.7472 13.7013 68.3765 14.064C69.0165 14.416 69.5178 14.9173 69.8805 15.568C70.2432 16.208 70.4245 16.9493 70.4245 17.792C70.4245 18.6453 70.2432 19.392 69.8805 20.032C69.5178 20.672 69.0165 21.1733 68.3765 21.536C67.7472 21.8987 67.0325 22.08 66.2325 22.08ZM61.8965 25.104V13.6H62.9845V16.128L62.8725 17.808L63.0325 19.504V25.104H61.8965ZM66.1525 21.072C66.7498 21.072 67.2832 20.9387 67.7525 20.672C68.2218 20.3947 68.5952 20.0107 68.8725 19.52C69.1498 19.0187 69.2885 18.4427 69.2885 17.792C69.2885 17.1413 69.1498 16.5707 68.8725 16.08C68.5952 15.5893 68.2218 15.2053 67.7525 14.928C67.2832 14.6507 66.7498 14.512 66.1525 14.512C65.5552 14.512 65.0165 14.6507 64.5365 14.928C64.0672 15.2053 63.6938 15.5893 63.4165 16.08C63.1498 16.5707 63.0165 17.1413 63.0165 17.792C63.0165 18.4427 63.1498 19.0187 63.4165 19.52C63.6938 20.0107 64.0672 20.3947 64.5365 20.672C65.0165 20.9387 65.5552 21.072 66.1525 21.072ZM72.7403 22V10.128H73.8763V22H72.7403ZM80.6051 22.08C79.7305 22.08 78.9625 21.8987 78.3011 21.536C77.6398 21.1627 77.1225 20.656 76.7491 20.016C76.3758 19.3653 76.1891 18.624 76.1891 17.792C76.1891 16.96 76.3651 16.224 76.7171 15.584C77.0798 14.944 77.5705 14.4427 78.1891 14.08C78.8185 13.7067 79.5225 13.52 80.3011 13.52C81.0905 13.52 81.7891 13.7013 82.3971 14.064C83.0158 14.416 83.5011 14.9173 83.8531 15.568C84.2051 16.208 84.3811 16.9493 84.3811 17.792C84.3811 17.8453 84.3758 17.904 84.3651 17.968C84.3651 18.0213 84.3651 18.08 84.3651 18.144H77.0531V17.296H83.7571L83.3091 17.632C83.3091 17.024 83.1758 16.4853 82.9091 16.016C82.6531 15.536 82.3011 15.1627 81.8531 14.896C81.4051 14.6293 80.8878 14.496 80.3011 14.496C79.7251 14.496 79.2078 14.6293 78.7491 14.896C78.2905 15.1627 77.9331 15.536 77.6771 16.016C77.4211 16.496 77.2931 17.0453 77.2931 17.664V17.84C77.2931 18.48 77.4318 19.0453 77.7091 19.536C77.9971 20.016 78.3918 20.3947 78.8931 20.672C79.4051 20.9387 79.9865 21.072 80.6371 21.072C81.1491 21.072 81.6238 20.9813 82.0611 20.8C82.5091 20.6187 82.8931 20.3413 83.2131 19.968L83.8531 20.704C83.4798 21.152 83.0105 21.4933 82.4451 21.728C81.8905 21.9627 81.2771 22.08 80.6051 22.08Z" fill="#4B5563"/>
<defs>
<clipPath id="clip0_1369_2173">
<rect width="20" height="24" fill="white" transform="translate(6 4)"/>
</clipPath>
</defs>
</svg>
