<svg width="114" height="33" viewBox="0 0 114 33" fill="none" xmlns="http://www.w3.org/2000/svg">
<path d="M0 16.5C0 7.42386 7.28726 0 16.3574 0H33.6384C34.0223 0 34.263 0.414741 34.0725 0.748069L30.7879 6.49614C30.6099 6.80771 30.2785 7 29.9197 7H16.3574C11.226 7 7 11.2167 7 16.5C7 21.7833 11.226 26 16.3574 26H21.167C21.7193 26 22.167 26.4477 22.167 27V32C22.167 32.5523 21.7193 33 21.167 33H16.3574C7.28726 33 0 25.5761 0 16.5Z" fill="white"/>
<path d="M33.5 13.1328C34.0523 13.1328 34.5 13.5805 34.5 14.1328V28.0525C34.5 28.4113 34.3077 28.7427 33.9961 28.9207L28.2481 32.2053C27.9147 32.3958 27.5 32.1551 27.5 31.7712V21.1328C27.5 20.5805 27.0523 20.1328 26.5 20.1328H15.8616C15.4777 20.1328 15.237 19.7181 15.4275 19.3847L18.7121 13.6367C18.8901 13.3251 19.2215 13.1328 19.5803 13.1328H33.5Z" fill="#D4F770"/>
<path d="M46.2714 14.844C46.2714 8.22 51.1674 3.804 57.2474 3.804C61.0234 3.804 63.6474 5.468 65.5354 7.804L63.4234 9.116C62.0794 7.388 59.8074 6.172 57.2474 6.172C52.5754 6.172 49.0234 9.756 49.0234 14.844C49.0234 19.9 52.5754 23.548 57.2474 23.548C59.8074 23.548 61.9194 22.3 62.9754 21.244V16.892H55.6474V14.524H65.6314V22.236C63.6474 24.444 60.7354 25.916 57.2474 25.916C51.1674 25.916 46.2714 21.468 46.2714 14.844ZM69.2119 25.5V4.156H71.6119V25.5H69.2119ZM76.9434 7.452C76.0794 7.452 75.3434 6.716 75.3434 5.82C75.3434 4.924 76.0794 4.22 76.9434 4.22C77.8394 4.22 78.5754 4.924 78.5754 5.82C78.5754 6.716 77.8394 7.452 76.9434 7.452ZM75.7594 25.5V10.044H78.1594V25.5H75.7594ZM93.5069 25.5V23.196C92.3549 24.764 90.4669 25.884 88.2909 25.884C84.2589 25.884 81.4109 22.812 81.4109 17.788C81.4109 12.86 84.2269 9.66 88.2909 9.66C90.3709 9.66 92.2589 10.684 93.5069 12.38V4.156H95.9069V25.5H93.5069ZM93.5069 21.308V14.3C92.6429 12.956 90.7869 11.804 88.8669 11.804C85.7629 11.804 83.9069 14.364 83.9069 17.788C83.9069 21.212 85.7629 23.74 88.8669 23.74C90.7869 23.74 92.6429 22.652 93.5069 21.308ZM99.5931 29.372C99.9451 29.532 100.521 29.628 100.905 29.628C101.961 29.628 102.665 29.276 103.209 27.996L104.233 25.66L97.7691 10.044H100.361L105.513 22.716L110.633 10.044H113.257L105.513 28.636C104.585 30.876 103.017 31.74 100.969 31.772C100.457 31.772 99.6571 31.676 99.2091 31.548L99.5931 29.372Z" fill="white"/>
</svg>
