<svg width="80" height="80" viewBox="0 0 80 80" fill="none" xmlns="http://www.w3.org/2000/svg">
<path d="M72 0C76.4183 1.03081e-06 80 3.58172 80 8V72C80 76.4183 76.4183 80 72 80H8C3.58172 80 6.44277e-08 76.4183 0 72V8C1.03084e-06 3.58172 3.58172 6.44256e-08 8 0H72ZM20 48C16.6863 48 14 50.6863 14 54V63C14 66.3137 16.6863 69 20 69H23C26.3137 69 29 66.3137 29 63V54C29 50.6863 26.3137 48 23 48H20ZM38 39C34.6863 39 32 41.6863 32 45V63C32 66.3137 34.6863 69 38 69H41C44.3137 69 47 66.3137 47 63V45C47 41.6863 44.3137 39 41 39H38ZM56 30C52.6863 30 50 32.6863 50 36V63C50 66.3137 52.6863 69 56 69H59C62.3137 69 65 66.3137 65 63V36C65 32.6863 62.3137 30 59 30H56ZM23 52C24.1046 52 25 52.8954 25 54V63C25 64.1046 24.1046 65 23 65H20C18.8954 65 18 64.1046 18 63V54C18 52.8954 18.8954 52 20 52H23ZM41 43C42.1046 43 43 43.8954 43 45V63C43 64.1046 42.1046 65 41 65H38C36.8954 65 36 64.1046 36 63V45C36 43.8954 36.8954 43 38 43H41ZM59 34C60.1046 34 61 34.8954 61 36V63C61 64.1046 60.1046 65 59 65H56C54.8954 65 54 64.1046 54 63V36C54 34.8954 54.8954 34 56 34H59ZM52 13.251C50.8956 13.251 50.0002 14.1456 50 15.25C50.0002 16.3544 50.8956 17.2499 52 17.25H54.8848L41.7227 27.9883L38.9951 24.9209C38.2895 24.1273 37.086 24.0244 36.2549 24.6855L14.2549 42.1846C13.3907 42.8722 13.2472 44.1307 13.9346 44.9951C14.6222 45.8594 15.8807 46.002 16.7451 45.3145L37.2637 28.9932L40.0049 32.0791C40.7168 32.88 41.9343 32.9771 42.7646 32.2998L57.5967 20.2012L57.0303 23.4023C56.8385 24.4897 57.5642 25.5273 58.6514 25.7197C59.7391 25.9117 60.7777 25.1853 60.9697 24.0977L62.4688 15.5977C62.5715 15.0155 62.4121 14.4178 62.0322 13.9648C61.6523 13.512 61.0911 13.2501 60.5 13.25L52 13.251Z" fill="#F8F9F9"/>
</svg>
